<svg xmlns="http://www.w3.org/2000/svg" width="208" height="260" fill="none"><g fill="#88868d" clip-path="url(#a)"><path d="M140.425 200.231c.412.117.707-.118 1.061-.294 1.238-.588 1.827-1.822 2.771-2.704.294-.294.294-.705.117-1.058-.412-1.116-.117-2.174.354-3.349-.354-.823-.943-.764-1.415-.412-.53.353-1.002.412-1.591.118-1.179-.647-2.3.059-3.42.235-.177.059-.412.294-.53.47-.472 1.058-1.238 1.939-1.71 3.056-.648 1.704-.059 2.88 1.061 3.761.413.353.826.529 1.415.353.649-.118 1.297-.294 1.887-.176M142.549 74.403c1.355.118 2.358-.646 3.006-1.587.884-1.292 1.179-2.88.177-4.349-.413-.646-.825-1.234-1.415-1.704-.707-.588-1.474-.94-2.535-.764-.648.118-1.12.177-1.592.294a1.3 1.3 0 0 0-.766.47c-.825 1.234-1.533 2.586-1.002 4.173.295.764.53 1.528.413 2.35-.059.412.176.706.589.823 1.061.236 2.122.236 3.125.294M154.277 153.332c.059.646.177 1.469.944 1.704.825.235 1.238.705 1.532 1.411.708 1.528 1.179 1.645 2.535.646.236-.176.472-.411.708-.646.294-.235.648-.353 1.002-.235h.118c.295.94 1.002 1.234 1.415 1.821l.059-.117c.707-1.234.707-1.234-.472-1.352-.413-.059-.707-.235-1.002-.47 0-.059-.059-.117-.118-.235.059-.705.059-1.234 0-1.939.059 0 .059.058.118.058 0-.529-.295-.705-.59-.881-.353-.177-.766-.412-1.179-.588-.059 0-.118.059-.059.176-.059-.058-.118-.058-.177-.117-.294-.118-.53-.235-.648-.235-.825.235-1.651.411-2.535.235-.413-.059-.825.176-1.238.352-.236.118-.413.294-.413.412M180.806 192.414c-.294-.235-.648-.47-1.002-.411-.707.117-1.12-.353-1.532-.764-.885-.882-1.828-.764-2.712.176-.295.294-.413.764-.826.882.118.176.177.293.118.47-.059 1.528-.059 1.645 1.356 1.822.649.058 1.297.411 1.887-.235.177-.177.471-.059.648.117s.354.353.59.411c.707.294 1.768.059 2.063-.411.354-.705.118-1.469-.59-2.057M128.87 191.18c.236.94.825 1.234 1.827 1.117.59-.059 1.297-.118 1.828-.412a6 6 0 0 1 2.24-.764c.472-.059.884-.705 1.356-1.058-.354-.235-.825.294-1.12-.176-.059-.059-.236-.176-.354-.118-.766.177-1.297-.058-1.651-.822-.353-.764-1.061-.764-1.886-.412-1.12.118-1.769.882-2.653 1.117.059.588.295 1.058.413 1.528M160.173 180.719c0-.059.059-.118.059-.176.884-.353.767-1.117.825-1.94v.118c1.474.646 1.474.646 3.007.411.118 0 .236-.059.413-.176 0 .059 0 .059.059.117s.236.059.353-.058v.176c.295.411.413.764.649 1.058.177.176.413.294.648.058.118-.117.118-.352.059-.47-.118-.411-.648-.646-.825-1.175l.177-.176c0-.471-.177-.706-.59-.647l-.059.059v-.176c-.766.235-1.356.176-1.886-.118-.531-.294-.708-.94-1.474-.999-.707 0-.943.705-1.356 1.058-.118 0-.236 0-.354-.059-1.179-.117-2.181-.294-3.183.353-.354.235-.707.235-1.061.117-.59-.176-.708.294-.943.647-.177.294-.059.47.176.587.708.235 1.533.294 1.946.999.472.882 1.297 1.058 2.181 1.176.531-.059 1.12.059 1.179-.764M149.62 188.77c-.177-.176-.354-.235-.472-.117v.059c.059.058.177.117.472.058M151.744 133.644c-.059-.059-.177-.059-.295-.118a.45.45 0 0 0 .295.118"/><path d="M152.45 130.764c-.413-.176-.767-.059-.944.353-.118.293.059.587.295.822.177.177.413.294.531.529.118.118.176.353.059.529-.177.353-.413.647-.708.647.295.176.236.529.413.822l-.118.118c-.354 1.117-.236 2.057.413 2.938.412.647 1.061.823 1.768 1.117l-.059.059c.354.176.59.235.59-.176.059-.059.118-.059.236-.118.884-.646 1.061-1.469 1.296-2.41.059 0 .059.059.118.059 0-.529-.176-.881-.589-.881-.059-.059-.118-.177-.177-.235a1.1 1.1 0 0 0-.472-.412l.177-.176c.177-.529.531-.705.767-.94.589-.588.648-1.176.235-1.822-.53-.823-1.414-1.235-2.593-.999-.413.058-.767.352-1.238.176M97.51 186.184c.825.353 1.65.235 2.298-.235s1.179-1.116.826-2.174c-.413-1.293-1.356-1.528-2.358-1.469-.708.058-1.887 1.175-2.064 1.939-.177.823.295 1.469 1.297 1.939M107.765 145.515c-.943.764-.943 1.94-.295 2.645.649.705 1.356.823 2.299.705.354.118.59.235.826.294.118 0 .295-.059.353-.117.177-.823.708-1.587.354-2.528-.589-1.469-2.24-1.998-3.537-.999M138.539 158.621c-.177 0-.354.177-.354.353-.059 1.058.059 2.116.766 2.997.826 1.058 1.533 1.058 2.418.059.294-.353.589-.647.589-1.293 0-.47 0-.764-.059-1.058-.118-.94-.295-1.117-1.12-1.175-.766.058-1.533.117-2.24.117M168.191 233.259c.117-.235.058-.47-.295-.529-.177-.058-.413.059-.531 0-.943-.352-1.709-.058-2.358.647-.118.117-.236.294-.413.529-.117.353-.176.588-.176.881.059 1 .176 1.999-.944 2.586-.177.118-.235.47-.059.647.177.176.531.176.649-.059.354-.529.884-.764 1.415-1.058 1.002-.529 1.886-1.234 2.122-2.468.118-.412.413-.764.59-1.176M179.923 185.714c.413-.646.53-1.234-.118-1.822-.236-.235-.354-.529-.531-.764-.766-.94-1.827-.881-2.358.177-.648 1.175-.648 1.175-.118 2.527 0 .059.059.117.118.294.413.235.767.352 1.12.47.826.117 1.474-.177 1.887-.882M138.89 150.041c-.176.058-.235.293-.176.47.058.059.176.176.294.176.295.059.59.294.885.059.471-.294.943-.294 1.414-.235.295 0 .59-.118.885-.235.707-.294 1.002-1.293.471-1.881-.294-.353-.707-.705-1.12-1.175-.236-.47-.412-.823-.766-.999-.236-.118-.472-.059-.649.117-.059.059-.471 1.881-.471 1.998-.059.647.059 1.411-.767 1.705M159.881 172.197c0-.059.059-.059 0 0-.354-.294-.59-.705-.943-.411-.059 0-.177-.059-.236-.059-.826-.118-1.474-.353-2.299-.235-.177 0-.236.059-.295 0 .118-.059.236-.118.295-.176a31 31 0 0 0-1.71-1c-.236-.117-.295-.352-.354-.587-.177-.941.413-1.234 1.12-1.587a.45.45 0 0 0 .236.117c.826.353 1.533.353 2.299.412.59.059.708-.176.767-.705.059-.588.059-1.293.53-1.705.354-.294.826.059 1.238 0 .059 0 .118 0 .177-.059.236-.058.295-.235.236-.411-.118-.411-.354-.764-.472-1.175-.176-.647-.707-.823-1.238-.941q-.618-.088-1.061.177c-.353.176-.648.411-1.061.294-.766-.294-1.474.058-2.24.528v-.117c-.295.059-.531.059-.766.059.117.176.235.352.412.529-.059.117-.059.176-.118.293-.118.471-.236.882-.118 1.352v.059h-.059c-.412.764-1.355.646-1.591 1.352-.236.646-1.12.764-1.415 1.351.236.412.413.706.589 1.058.177.412.472.529.885.529.353 0 .825-.235 1.002.177.295.528-.295.705-.59.999a1.3 1.3 0 0 0-.294.47c-.059.176.059.352.412.352 0 0 .059 0 .059-.058-.059.058-.059.117-.118.176.59.117 1.12.176 1.769.235h.059c-.059.059-.059.118-.118.118.177.176.236.293.413.352-.059.059-.118.059-.177.118-.531.352-.944.587-1.356.881-.236.177-.354.412-.177.647.531.764 2.299 1.293 3.183.94.177-.059.295-.235.413-.353.413-.352.354-.881.354-1.469.059 0 .059.059.118.059a.8.8 0 0 0 .235-.176c.059.058.118.058.118.117.472.176.826.353 1.356.235l-.059.059c.354.059.59-.059.59-.294l.177-.176c.412-.412.412-.882.471-1.293.236-.588-.059-.882-.648-1.058M128.869 185.538c1.356.47 2.771.764 4.068-.235.294-.235.707-.235.943-.647-.177-1.175-.59-2.174-2.24-2.056-1.651.176-2.123 1.528-2.948 2.468-.118.117 0 .411.177.47M76.991 99.498c.236-.587 0-1.175-.53-1.645-1.12-.882-2.24-.94-3.538-.118-.118.353-.294.647-.236.823.531 1.058 1.356 1.822 2.535 1.998.708.118 1.533-.352 1.769-1.058M154.453 160.737c.59.764.944 1.822 2.182 1.763.294 0 .589.118.884.235.531.176.943.118 1.356-.646.177-.236.059-.471-.118-.647-.354-.294-1.002-.176-1.12-.646-.177-.647-.766-1.117-.884-1.999-.472-.47-.826-.528-1.179-.117s-.708.881-1.062 1.293c-.117.294-.235.529-.059.764M156.403 106.022c.059 0 .059 0 .118-.059.118-.118.118-.235.177-.353v-.059.118c.058 0 .176-.176.117-.176h-.117c0-.059 0-.059.059-.118 0 0 .058.059.117.059.177-.294.059-.353-.176-.294-.059-.059-.059-.118-.118-.118a4 4 0 0 0-1.12.471c-.059 0-.118-.059-.177-.059q-.354.352-.177.705c.236.411.648.823.707 1.293.059 1.117.885 1.528 1.533 2.116.413.352.766.352 1.179.176.708-.294 1.061-.764.943-1.41-.118-.823-.294-1.646-1.297-1.822-.53 0-1.179.117-1.768-.47M184.64 204.462c-.944.47-1.946.999-2.653-.411-.118-.177-.472-.177-.708 0-.236.176-.353.352-.295.646.059.176.118.353.236.529.472.529.59 1.058 0 1.646-.471.47-.412 1.175-.471 1.763-.059.352.294.529.648.529.295 0 .531-.118.531-.412.059-.235.118-.529.059-.764-.177-.646.118-.529.648-.587 1.238-.059 2.122-.999 2.771-1.999.236-.352 0-.705-.472-.999-.177 0-.236 0-.294.059M182.338 225.855c.472-.588.649-1.117.531-1.646-.118-.47-.472-.882-.826-1.175a.94.94 0 0 0-.648-.294c-.649.117-1.297.294-1.533.881-.354.941-.589 1.94-.059 2.88.472.882.884.94 1.651.411.295-.293.589-.587.884-1.057M6.722 146.573c.59 1.117 1.71 1.411 2.594 1.999.648.411 1.179.352 1.71-.177.235-.176.412-.47.648-.705.413-.588.295-1.293-.413-1.528-1.473-.588-3.065-.588-4.598-.294-.295.059-.177.353.06.705M133.056 47.252a1.76 1.76 0 0 0 .531-2.351c-.177-.294-.531-.53-.885-.882-1.296-.294-1.768-.117-2.181.647-.471.822-.353 1.586.295 2.233.472.529 1.71.705 2.24.352M135.238 103.788c.354-.235.649-.646.354-.94-.648-.764-.354-1.352.236-1.88.059-.059.059-.236.059-.471-.236-.587-.531-.999-1.002-1.234-.413-.176-.826-.294-1.238-.059-.236.177-.295.823-.059 1.235.118.235.294.411.412.646.118.176.354.353.413.588.118.411-.354.411-.531.587-.412.412-.471 1.235-.059 1.646.236.235.944.235 1.415-.118M58.833 66.41c.412-.117.825-.352 1.002-.763.236-.588 0-1.058-.472-1.587-.648-.823-1.474-.882-2.299-.882-.766 0-1.179.647-.943 1.41.354 1.059 1.179 1.529 2.181 1.881.118.06.354 0 .53-.058M171.786 177.604c.177-.059.354-.176.472-.294.884-.705.707-1.939-.295-2.409-.471-.236-.943-.236-1.592-.118-.943.118-.884.823-.943 1.293-.059.882.295 1.763 1.002 2.233.649.47.885-.47 1.356-.705M22.815 164.381c.412-.294.707-.706.59-1.293-.119-.529-.472-.882-.944-1.058s-1.002-.176-1.474-.059c-.59.118-1.002.47-1.297 1.175-.236.647-.236 1.176.354 1.411.884.47 1.886.47 2.77-.176M106.174 155.389c.413-.412.413-1.058 1.002-1.293.118-.059-.176-.177-.294-.118-.295.118-.472-.059-.59-.294-.118-.293-.236-.646-.472-.999-1.002.118-1.827.529-2.417 1.293-.235.294-.235.588 0 .823.236.235.413.47.649.647.648.528 1.592.47 2.122-.059M144.317 100.497c.53.47 1.061.882 1.591 1.293.118.118.295.235.413.353.354.176.708.235 1.061-.059.236-.235.177-.529.059-.882-.236-.47-.412-.881-.648-1.351-.177-.353 0-.53.412-.647.118-.058.236-.117.354-.235h.295c.236-.117.412-.294.648-.47l.059.059c.118-.059.118-.118.177-.177.059 0 .118-.058.177-.058.118-.06.177-.118.354-.118v.059c.177 0 .353-.059.471-.059.177 0 .295-.059.472-.059.059 0 .236-.058.413-.117l-.059.059c.825-.177 1.473-.47 1.945-1.058.118-.177.236-.353.118-.47.059-.118.059-.177.059-.294.118-.353.118-.647-.059-1.058h.059c-.059-.235-.118-.47-.177-.647 0-.117-.059-.235-.059-.352 0-.059-.059-.235-.118-.353l.059.059c-.118-.529-.354-.882-.707-1.117-.059-.117-.177-.235-.236-.352-.295-.294-.531-.47-.825-.706h.059c-.472-.352-.944-.587-1.356-.411-.118 0-.236-.059-.354-.059-.354.059-.649.177-1.061.412h-.059c0-.06.059-.06.059-.118-.708.412-1.179.94-1.002 1.587-.059.117-.059.235-.118.353-.059.058-.059.235-.059.352v.059s0-.059-.059-.059c-.236.588-.354 1.117-.767 1.587-.117.118-.176.294-.117.47 0 .118-.059.176-.059.294-.118.411-.177.646.059 1.117 0 0-.059 0-.059-.06.059.647.117 1.235.235 1.764-.471.176-.943.294-1.414.47-.531.059-.59.647-.236.999M105.88 120.949c-.53.294-1.12.529-1.65.764-.354.177-.472.588-.236.941.353.47.884.881 1.415.587.825-.411 1.591.059 2.476-.235.53-.822.412-1.528-.236-2.057-.59-.47-1.238-.293-1.769 0M55.887 71.7c.413.235.826.176 1.297-.235.354-.53.177-.94-.059-1.352-.766-1.352-2.063-1.117-3.301-1.117-.177 0-.413.06-.354.294.236 1 .885 1.587 1.769 1.998.236.177.412.294.648.412M166.423 190.181c-.649.529-1.179 1.058-1.769 1.645-.472.47-.354.823.295 1.117.648.294 1.297.47 1.945 0 .236-.176.413.059.531.294.059.176.177.294.412.47.354-.118.531-.411.354-.588-.589-.411-.707-.764-.412-1.469.176-.411-.177-.94-.472-1.352-.295-.294-.649-.352-.884-.117M117.019 192.179c-.884.529-1.71 1.117-2.83 1.117-.118 0-.236.294-.295.411-.059.176.118.353.295.411.118.059.236.118.354.118.707-.176 1.297-.118 1.886.353.413.352 1.061.352 1.592 0 .531-.412.884-.823.649-1.705-.472-.646-1.003-1.058-1.651-.705M175.264 221.153c-.354-.47-1.002-.529-1.827 0-.177.117-.236.294-.413.529-.236.764-.59 1.41-.295 2.115.177.412.531.647.826.529.53-.293 1.179-.47 1.591-.94.649-.646.649-1.528.118-2.233M162.884 192.943c-.472-.353-1.061-.294-1.592-.353-.53-.058-.471.471-.707.706-.59.529-.236 1.175-.118 1.763.177.529.766.529 1.415.411.354-.235.648-.411.825-.646.472-.412.59-1.528.177-1.881M178.686 170.375c-.235.647-.235 1.234.354 1.646.413.294.884.587 1.297.764.472-.588.943-1.117 1.061-1.822.118-.823-.354-1.469-1.238-1.469-.589 0-1.297.411-1.474.881M155.401 76.46c.176.47.412.882.707 1.293.236.353.589.647 1.12.588.472 0 .766-.294 1.061-.823.236-.881 0-1.41-.707-1.763a3.2 3.2 0 0 0-1.179-.411c-.708-.118-1.238.47-1.002 1.116M119.319 176.194c-.354.235-.648.528-1.061.94-.295.352-.472.646-.354.94.177.529 1.415.999 1.946.705.471-.293.884-.705 1.238-1.116.353-.353.294-.823-.059-1.176-.531-.529-1.121-.646-1.71-.293M190.828 187.184c-.648.235-.825.705-.53 1.469.236.529 0 .823-.354 1.116-.471.353-.236.765 0 1.117a.6.6 0 0 0 .295.118c.118 0 .236-.118.295-.177.118-.822.412-1.528 1.238-1.88.294-.118.353-.529.353-.941-.235-.705-.648-1.057-1.297-.822M96.919 127.473c.471-.118.707-.588.53-.999-.177-.47-.53-.823-.943-1.176-.295-.235-.707-.235-.825-.764-.177-.235-.295-.352-.472-.411-.413-.059-.53.059-.295.47.118.235.236.47.06.647-.531.587-.237 1.175.117 1.704.413.588 1.12.647 1.828.529M129.342 142.048c-.177-.059-.236-.059-.295-.059-1.474-.47-2.004-.059-2.004 1.411 0 .646.353.881.825 1.057 1.415.471 1.769.706 2.535-.999v-.058s.059.058.118.058c.236-.235.413-.411.413-.587.059 0 .118 0 .235-.059.944-.823 1.003-1.058.295-1.763a.67.67 0 0 0-.471-.177c0-.058-.059-.176-.059-.235-.354-.411-.708-.646-.354-1.057.118-.118.295-.236.354-.412.294-.529 0-1.058-.59-.999-.825.059-1.651.118-2.417.235-.354.059-.648.294-1.12.529v-.117c-.649.117-.707.176-.236.587 0 .059 0 .177.059.235.59.764 1.415.647 2.24.823l-.059.059c.118.176.118.235.177.176.236-.117.413-.117.649-.176 0 .059.059.059.059.117.059.294.118.529.294.823h-.118c-.176.176-.235.353-.294.529-.059.059-.118.059-.236.059m.825-.353c.059 0 .059 0 .118.059l-.118.118zM175.089 174.137c-.354 1.116.176 1.821 1.355 1.821.413 0 .885-.058 1.18-.646.117-1.704.117-1.704-1.651-2.41a3 3 0 0 0-.884 1.235M185.109 227.089c-.236.117-.472.058-.707.117-.649.176-.826.412-.708 1.058.059.47.236.882.826.764.353-.059.589.059.825.235.766.412 1.179.235 1.474-.47.177-.411.236-.823 0-1.411-.708-.764-.708-.764-1.71-.293M127.631 68.409c.766-.588.884-.882.589-1.41-.53-.941-1.474-1.294-2.417-1.646-.295-.118-.648.235-.589.529.117.705.412 1.292.825 1.821q.53.794 1.592.706M173.496 115.66c-.236-.647-.825-.705-1.474-.882-.236.059-.354.059-.471.177-.59.646-.59 1.586-1.179 2.292-.059.058.058.352.117.47.177.176.472.352.649.176.413-.411.943-.47 1.533-.588 1.061-.293 1.238-.705.825-1.645M170.668 183.128c-.059-.235-.236-.411-.413-.587-.412-.353-.884-.412-1.415-.412-.471 0-.766.235-1.12.647 0-.059 0-.059-.059-.118-.471-.411-.884-.705-1.296-1.058-.295.529-.236.999.117 1.411.236.294.531.588.885.764 0 .117.059.176.059.294.118.529.235.881.589.999.472.176 1.002.235 1.474.059.884-.177 1.474-1.176 1.179-1.999M120.794 127.767c.472.352 1.003.411 1.71.176.059 0 .059-.059.118-.059-.059.059-.059.118-.118.118.59.176 1.179-.118 1.651.411l-.059.059c.177.117.295.059.295-.059h.176c0 .059-.059.059-.059.118.295.117.472.235.649.235.236.059.531-.059.589-.294a.59.59 0 0 0-.235-.647c-.118-.058-.177-.058-.354-.058 0-.059 0-.118.059-.177.059-.587.53-.999.118-1.528l.059-.058c-.649-1.235-.826-1.352-1.887-.941-.177.059-.294.177-.53.353 0-.059 0-.059-.059-.118q-.442 0-.708.177c-.059 0-.177-.059-.294-.059-.59-.059-1.121-.059-1.592-.059-.59 0-.825.411-.708.999.236.588.708.999 1.179 1.411M123.092 115.719c.589.235 1.238-.059 1.591-.647.236-.411.118-.999-.412-1.293-.295-.235-.649-.294-1.121-.529-.589-.293-.943-.176-1.238.235-.294.471-.294 1 0 1.411.295.294.708.588 1.18.823M139.834 153.567c-.177-.059-.354 0-.472.176-.118.177-.059.353.118.47.413.177.766.353 1.12.647.531.47 1.238.529 1.887.646.471.059.884-.117 1.061-.587.177-.353.236-.706.059-1.058-.295-.47-.767-.705-1.238-.588-.413.059-.826.294-1.356.529-.531.176-.826-.117-1.179-.235M121.795 132.762c.353.235.766.47 1.12.588.648.235 1.061-.059 1.356-.764.059-.999-.649-1.411-1.238-1.822-.413-.294-1.238 0-1.474.411-.354.529-.295 1.176.236 1.587M134.058 174.019c-.118-.411-.648-.646-1.238-.646-1.002 0-1.592.587-1.886 1.645.176.647.53.94 1.002 1.117.589.176 1.12-.059 1.591-.294.531-.235.767-1.176.531-1.822M124.329 46.017c.472-.235.649-.529.59-.94-.059-.529-.295-1-.767-1.175a10.4 10.4 0 0 0-1.886-.706c-.177-.058-.413 0-.472.235-.059.177-.118.353-.059.53.236.41.472.88.767 1.292.412.53.943.882 1.827.764M143.017 163.029c-.177.235-.118.47.118.646.648.588 1.533.764 2.358 1.058.236.118.413-.117.53-.411.118-.411-.294-.999.177-1.352-.825-.94-1.768-.646-2.711-.646-.413 0-.295.47-.472.705M157.522 189.299c.059-.117.118-.235.118-.352.059-.235.059-.529-.118-.706-.236-.235-.59-.293-.825-.058-.531.47-1.003.881-1.769.587-.236-.058-.413.235-.472.47-.059.294.059.529.295.588.413.176.943.118 1.297.647l-.177.176c-.412.411-.943.529-1.002.999-.059.588 0 1.234.177 1.822.118.235.295.411.531.47 1.296.294 2.534-.411 2.947-1.704.118-.47.059-.882-.471-1.234l-.059-.059h.059c-.885-.823-.885-.823-.531-1.646M81.119 108.196c.353.177.707.118 1.12 0 .53-.176.648-.646.412-1.234-.058-.176-.235-.294-.471-.47-.472-.176-.826-.353-1.18-.353-.825-.059-1.355.177-1.414.647 0 .646.53.764.943 1.058.177.058.354.235.59.352M77.994 40.375c.766.176 1.238-.176 1.12-.94s-.59-1.352-1.179-1.822c-.354-.235-.707-.235-1.061-.059-.413.235-.53.647-.413 1.117s.413.881.944 1.293c.294.294.412.411.59.411M149.327 200.054c-.235-.294-.53-.235-1.002-.058-.53.764-1.356.94-1.827 1.528-.177.176-.354.352-.295.646.118.411.295.823.707 1.058.295.117.885-.059 1.121-.47.353-.647.825-1.234 1.296-1.822.236-.235.236-.588 0-.882M115.018 131.352c.176-.471-.001-1.117-.531-1.47-.472-.352-1.061-.411-1.71-.176-.53.411-.707.882-.412 1.41.294.529.707.882 1.297.941.53.117 1.12-.176 1.356-.705M131.701 119.127c.059.471-.059.823-.354 1.176a.62.62 0 0 0-.118.705c.177.647.59 1.058 1.179 1.352a.83.83 0 0 0 .885-.176c.294-.236.353-.529.235-.823a5 5 0 0 0-.471-.999c-.295-.529-.531-1.058.059-1.646.118-.117-.118-.294-.413-.411-.589.117-1.12.235-1.002.822M153.513 119.715c-.059-.059-.118-.059-.177-.117 0 .058.059.117.177.117M154.396 120.714c.295.294.648.353 1.002.177.884-.471 1.061-1.176.354-1.94-.295-.353-.708-.47-1.12-.588-.354-.117-.59.059-.708.412-.118.294-.176.588-.294.881-.059.059-.059.118-.118.118.353.235.589.646.884.94M181.516 173.49c-.412-.059-.884 0-1.12-.47 0 0 0-.059-.059.117-.176.353-.412.471-.53.706-.413.587-.177 1.234.471 1.234.885-.059 1.651.411 2.359.588.294-.294.176-.588.117-.764-.058-1.117-.176-1.293-1.238-1.411M160.644 99.85c-.53-.293-.766-.293-1.297.295-.118.117-.236.293-.354.587q-.088.44 0 .706c.177.587.59.94 1.238.999.59.058 1.121-.471 1.356-1.117.177-.529-.059-.94-.766-1.352-.059-.059-.118-.059-.177-.117M150.328 189.182c.471-.412 1.179-.177 1.65-.647 1.297-1.293 1.297-1.528.177-3.056-.471.588-.943 1.117-1.002 1.822-.059.529-.295.882-.884 1.058-.236.059-.354.294-.531.411 0 0 0 .059.059.118.236.176.472.353.531.294"/><path d="M152.156 185.481s.061 0 0 0c0-.121 0-.06 0 0M194.191 175.136c-.177.411-.413.764-.767.999-.294.235-.294.529-.059.94.472.176.826.294 1.179.353.177 0 .413 0 .531-.118.295-.47.59-.94.825-1.469.177-.353-.294-.999-.766-1.117s-.766 0-.943.412M179.982 219.625c-.177.529-.118 1.116.118 1.763 1.297.588 1.473.529 1.886-.529.059-.235.177-.47.177-.705a1.025 1.025 0 0 0-.825-1.235c-.59-.176-1.179.118-1.356.706M155.339 83.513c-.236-.53-.589-1-1.12-1.411-.354-.059-.707-.118-.825 0-.295.411-.118 2.116.177 2.468.353.412 1.061.53 1.532.294.413-.235.531-.764.236-1.352M197.432 192.414c-.59.059-.885.588-.59 1.058.236.353.531.705.826.999.353.353.766.353 1.296.059.59-1.411.354-1.881-.766-2.116zM193.245 148.571c-.354.529-.471 1-.236 1.47.177.411.531.646.944.881.235.118.471.118.648-.117.177-.177.354-.353.472-.588.471-.764.236-1.587-.649-1.881-.412-.058-.766 0-1.179.235M6.072 178.074c1.002.059 2.004.235 3.006-.411.236-.294.295-.588.118-.764-.412-.47-.943-.705-1.533-.47-.648.235-1.179.646-1.768 1.058-.06.058-.06.235-.06.352 0 .059.119.235.237.235M146.319 77.048c.589-.94-.118-2.292-1.238-2.351a.516.516 0 0 0-.531.411c-.413.882-.354 1.705.708 2.292q.795.177 1.061-.352M138.539 187.184c.943.058 1.828-.059 2.653-.647.059.059.118.059.236.118 1.002.117 1.71.352 1.592 1.469 0 .235.235.411.412.529l.708.353c0 .117.059.176.059.293.118.529.294.941.353 1.411.118.588.472.94 1.062.823.589-.118 1.002.529 1.591.235.59-.235.649-.882 1.12-1.234.531-.353.531-.941.59-1.47 0-.176.118-.352.236-.411-.177-.47-.472-.882-1.061-.94-.413-.059-.826-.177-1.356-.353v-.059s.059 0 .059-.059c-.118-.293-.177-.47-.118-.587.118-.353.53-.47.766-.705.472-.353.472-.529 0-1.176a.33.33 0 0 0-.295-.176c-.589.588-.884 1.352-1.474 1.822-.117-.059-.176-.059-.294-.118-.59-.117-1.002.059-1.238.647v.117l-.118-.117c-.354.352-.649.411-.943.293-.295-.176-.413-.411-.354-.764.059-.47.236-.94-.118-1.41.059-.059.059-.118.118-.176-.472-1.058-1.238-1.352-2.299-1.117l-.177-.176c-.767-.47-1.002-.47-1.002 0 .059 1.116-.472 2.057-1.12 2.879-.177.294.058.706.412.706M99.395 173.314c-.236.529-.118.823.177 1.058.353.293.766.411 1.179.293.354-.117.648-.293 1.002-.47.295-.176.531-.352.531-.705-.059-.47-.413-.529-.826-.529-.294-.059-.589-.176-.884-.176-.472-.118-.825.059-1.179.529M177.448 121.008c-.53-.059-1.002.118-1.297.706-.235.881.295 1.234.826 1.586.353.235 1.238-.058 1.532-.411s.295-.94-.058-1.352c-.295-.352-.59-.529-1.003-.529M182.223 197.116c-.295-.529-.767-.764-1.533-.529-.354.47-.589.881-1.061.999.472.117.825.47 1.12.823.354.352.943.293 1.297-.059.295-.353.413-.823.177-1.234M132.409 140.285c.059.705.589.882 1.179.94h.295c.412-.058.766-.058 1.002-.352.353-.412.353-.999.059-1.352-.413-.47-1.002-.588-1.71-.353-.53.294-.884.647-.825 1.117M187.47 155.506c-.472.588-.177 1.411.471 1.646.59.235 1.415-.176 1.651-.823.236-.705-.177-1.234-1.238-1.351-.354.235-.707.293-.884.528M181.575 158.68c-.354-.059-.531.235-.59.588-.118.529-.413.529-.825.411-.177-.059-.354-.059-.649-.059-.412.235-.53.529-.53.823-.059.705.53 1.175 1.238.882.235-.118.471-.236.53-.412.177-.588.531-.881 1.179-1.058.236-.058.354-.294.295-.587-.059-.412-.354-.529-.648-.588M123.977 156.976c0 .293.059.587.059.94 0 .764.176.999.825 1.117.648.117 1.238.058 1.768-.529-.235-1.822-.471-1.94-2.652-1.528M120.497 77.87c.295-.234.295-.646.236-1.057-.118-.764-.472-1-1.71-1.117-.884.53-.943.647-.53 1.117.295.294.589.646.943.882.295.176.708.47 1.061.176M170.373 207.283c-.59.059-1.12.47-1.238.999-.177.646.059 1.175.707 1.528.177.118.472.118.885.118h.059l-.118.117c.177.118.177.176.236.235.707.47 1.12.47 1.532-.059.295-.352.177-.705-.353-1.234a.54.54 0 0 0-.413-.176c0-.059-.059-.176-.059-.235-.059-.176-.059-.235-.118-.294-.118-.646-.413-1.058-1.12-.999M178.507 137.817c-.118-.412-.354-.823-.059-1.352.059-.353.118-.588.059-.882 0-.294-.177-.47-.472-.529q-.708-.264-1.238.529c-.236.353-.295.706.059.999.472.353.59.882.707 1.411.059.235.354.294.649.176.236 0 .354-.176.295-.352M150.328 138.169c-.767-.294-1.297-.117-1.415.353-.118.411.354 1.116.884 1.293.118.058.236.058.354.058.707.059 1.356-.058 2.122-.293-.53-.529-.825-.941-1.533-1.117-.235-.176-.294-.235-.412-.294M122.09 12.87c.295-.293.354-.646.118-.998-.413-.647-.944-1.117-1.651-1.41-.354-.177-.531.117-.472.587 0 .94.472 1.47 1.12 1.88.295.177.59.177.885-.058M73.751 135.172c.648.235 1.297.411 1.945.587.177.059.413-.176.708-.411.118-.294.236-.529.177-.646-.53-1.176-2.24-1.47-3.125-.471-.177.236-.059.823.295.941M151.448 119.833c.236.352.59.411 1.003.352.353-.058.471-.352.707-.587 0 0 0 .058-.118-.118-.53-.764-.707-1.352.059-1.881.118-.058.177-.293.177-.47.059-.352-.295-.646-.707-.705-.413 0-.649.235-.59.529.236.764 0 1.293-.531 1.822-.235.294-.176.705 0 1.058M116.668 138.933c.53.059 1.002.176 1.356-.353.294-.528.059-.94-.295-1.351-.059-.118-.177-.118-.413-.235a7.4 7.4 0 0 0-1.238.117q-.354.088-.354.353c-.176.764.236 1.41.944 1.469M96.978 116.13c.354.823 1.592 1.587 2.358 1.411.413-.059.648-.353.766-.764.059-.353-.118-.588-.353-.823-.649-.529-1.474-.646-2.417-.588-.354.294-.472.47-.354.764M133.706 58.065c.118-.999-.707-1.88-1.769-1.88-.117 0-.235.235-.412.47-.177 1.058.236 1.645 1.061 2.057.472.176 1.061-.177 1.12-.647M75.932 199.29c.236-.176.471-.411.471-.764 0-.411-.294-.646-.825-.764-1.061.059-1.71.647-2.24 1.352-.118.176 0 .411.118.47.884.176 1.71.235 2.476-.294M177.211 140.931c-.177-.176-.531-.411-.59-.352-.53.411-1.238-.059-1.768.411-.236.235-.708.588-.649.823.059.529.531.176.885.235.471.059.884.529 1.532.059.236-.118.354-.177.413-.236.59-.352.648-.528.177-.94M112.599 205.226c.354.411.944.235 1.415.176.531-.117.885-.529.944-.999.058-.588-.295-.94-1.238-1.058-.354.177-.59.235-.767.412-.295.411-.766.94-.354 1.469M122.031 209.516c-.118-.646.295-.999.648-1.469.236-.353.177-.705-.177-.999-.294-.235-.707-.353-1.061-.118-.471.294-.825.764-.707 1.411.059.294.118.588.177 1.058.118.47.294.705.648.646.295-.117.531-.294.472-.529M91.67 52.6c.353.528.883.764 1.237.528.53-.352.354-.881.06-1.41-.885-.647-1.946-.764-2.418-1.763h-.177c-.059.117-.177.294-.118.294.649.646.885 1.587 1.415 2.35M162.416 158.268c-.177.353-.354.529-.413.764-.236.882 0 1.293.943 1.411.236.059.531.059.767 0 .176-.059.353-.235.353-.353q.088-.97-.53-1.763c-.295-.294-.767 0-1.12-.059M123.741 190.24c.354-.471.648-.706 1.12-.823.413-.059.825-.294 1.002-.705.177-.353.059-.764-.295-.882-.825-.235-1.356-.059-1.827.529a5.5 5.5 0 0 0-.708 1.293c-.176.47.059.705.708.588M187.174 84.335c.177-.352.118-.705-.118-1.175-.236-.294-.354-.529-.531-.647-.235-.176-.471-.058-.707.06-.472.176-.59.47-.531 1.057l.177.705c.177.353.472.588.885.588.412 0 .648-.235.825-.588M176.031 203.581c.354.058.649.058.826-.236.235-.352.235-.705-.059-1.116-.177-.294-.295-.412-.354-.588-.177-.294-.413-.47-.766-.235s-.767.411-1.121.647c-.294.176-.353.47-.294.822.059.235.236.47.471.47.472.118.885.177 1.297.236M30.301 106.609c.53 0 .767-.293.708-.822 0-.353-.177-.588-.59-.764-.53-.118-.943-.294-1.356-.118-.53.235-.648.823-.294 1.176.412.352.943.528 1.532.528M61.075 125.651c.707.235 1.474.411 2.063-.235.295-.294.236-.764-.118-.94-.766-.47-1.591-.588-2.594-.177-.294.764.118 1.235.649 1.352M143.019 223.268c-.236.588 0 .941.649 1 .235 0 .471-.118.825-.177.295 0 .471-.059.648-.059-.118-.529-.177-1.057-.294-1.586-.059-.235-.295-.412-.531-.471-.354-.058-.648.059-.825.294-.118.353-.295.647-.472.999M147.204 175.547q.443.176.884.176c.531 0 .885-.529.708-1.058q-.088-.441-.531-.705c-.177-.117-.295-.235-.295-.353-.412.353-.825.529-1.061.941-.236.352-.118.881.295.999M148.031 173.373v.235c.059-.235 0-.235 0-.235M81.294 96.677c-.53-.235-1.179-.235-1.415 0-.294.294.06 1 .649 1.352.471.294 1.002.47 1.533 0l.117-.117c-.058-.118-.058-.294-.117-.47-.177-.294-.413-.588-.767-.765M82.592 98.264c0-.353-.177-.47-.412-.294.059.118.177.235.412.294M123.563 147.514c.354-.353.766-.47 1.12-.706.295-.176.354-.47.177-.822-.177-.353-.413-.588-.884-.823.059 0 .059 0 .118-.059.471-1.117-.118-1.645-.826-2.116-.118-.058-.354 0-.471.118-.059.059-.177.235-.118.353.235.528.589 1.057.53 1.704-.059 0-.118.059-.236.117-.53.177-.766.412-.766.823 0 .353.177.588.472.705.294.177.648.353.943.529 0 0 0 .059-.059.177M147.321 155.565c0 .294 0 .705-.059 1.058 0 .117 0 .235.059.353a.74.74 0 0 0 .943.646c.413-.118.825-.294 1.238-.411a1.35 1.35 0 0 1 .825-.059c-.059-.412-.059-.823-.471-.764-.708.059-1.356 0-1.887-.588-.118-.176-.236-.47-.648-.235M173.024 193.002c.413 0 .708-.235.944-.529.176-.176.412-.294.648-.235l-.118-.059c-.471-.353-.707-.705-1.061-.94-.531-.412-1.12-.235-1.415.294-.177.352-.412.822-.177 1.234.295.411.767.235 1.179.235M180.452 118.422a.878.878 0 0 0 .943-1.058c-.059-.47-.413-.764-.766-.999q-.62-.352-1.238.353c.059 1.352.294 1.646 1.061 1.704M102.93 149.57c.235.177.589.294.884.353.707.118 1.297-.235 1.356-.705.118-.647-.413-1.117-1.238-1.058-.295 0-.59.176-1.002.294-.472.47-.413.823 0 1.116M166.777 160.208c-.177.294-.295.411-.413.705v.059c0-.059-.059-.118-.059-.176-.354-.059-.59-.059-.825 0-.177 0-.472.058-.472.176-.413 1.234-.884 2.527-.413 3.879.177.411.472.705 1.061.47l.118.118c.295-.118.472-.294.649-.529.059-.294.118-.471.236-.647 0 .294 0 .529-.059.823.589.059 1.12.176 1.532-.235.236-.235.649-.47.649-.882 0-.999.295-1.998-.766-2.762h-.059c.059-.059.059-.117.117-.176-.589-.47-1.061-.588-1.296-.823M168.368 94.738c-.295.176-.295.47-.236.823.059.293.177.587.531.822.413.235.707.177.943 0 .531-.411.413-1.469-.118-1.704-.412-.235-.825-.118-1.12.059M75.932 189.064c.53-.294.708-.764.53-1.234-.117-.235-.235-.411-.53-.529-.353-.117-.59.059-.943.294-.413.294-.707.588-.472.999.295.588.885.764 1.415.47M120.735 172.785c1.002.235 1.297-.706 1.946-1.117.118-.059-.059-.353-.236-.411-.472-.177-.943-.294-1.415-.412-.649-.176-1.061.118-1.179.764-.059.412.118.706.53 1.058.236.059.295.118.354.118M100.571 179.837c.59-.117 1.062-.588.944-.999-.177-.646-.885-1.117-1.415-.94-.59.176-1.002.47-.884 1.293.353.587.825.764 1.355.646M153.393 50.072c.118.412.236.823.766 1.117.354.059.649.118.826-.117.176-.177.294-.412.294-.647.059-.646-.235-1.175-.766-1.352-.295-.117-.649-.117-.884.118-.295.294-.354.587-.236.881M174.97 156.212c.413 0 .944.117 1.12-.353.177-.411-.235-.646-.412-.94-.059-.118-.118-.294-.236-.529.059 0 .118 0 .118-.059.177-.235.236-.47.295-.764.059 0 .059.059.059.059-.118-.706-.177-.823-.59-.588-.118-.059-.236-.059-.354-.059-.648.118-1.179.235-1.591.294.059 0 .059.059.059.118l-.236-.235c-.236-.235-.413-.412-.649-.529 0-.059 0-.118.059-.177q0-.441-.177-.705c.059-.059.118-.117.118-.176.059-.353-.059-.588-.353-.588-.767-.117-1.533-.117-2.064.529-.059-.059-.177-.059-.236-.118-.648.118-1.002 0-1.179-.528-.059-.177-.235-.294-.412-.529l-.059-.059h.118c-.413-.588-.708-1.176-1.356-.999a.45.45 0 0 0-.295-.118c-.118-.059-.177-.117-.354-.117 0 0-.059 0-.059.058 0-.058.059-.117.059-.117-.353-.118-.53.059-.707.235a4.8 4.8 0 0 0-.531 1.117c-.059.058-.118.058-.236.117-.058 0-.117 0-.235-.059.059 0 .059-.058.118-.058-.236-.294-.354-.529-.531-.647-.295-.235-.59-.059-.648.294-.059.294 0 .588.353.764-.059.059-.118.118-.118.235-.059.47-.118.764-.177 1.234v.059l-.058-.059c-.236.588 0 .882.471.882.059.059.118.117.177.235.177.353.177.529.118.764-.177 1.175-.177 1.234 1.238 1.41 0 .059-.059.059-.118.118.059.764-.531 1.058-.707 1.587a.94.94 0 0 0 .117.881c.354.412.826.588 1.356.412.531-.118.944-.412.885-.999-.059-.529.177-.764.648-.941.295-.117.531-.352.825-.646 0 .059.059.117.059.117.59-.176.531-.529.354-.881a.94.94 0 0 0-.589-.47c-.059-.059-.118-.118-.177-.235.53-.647 1.002-1.176 1.945-1.176l.059-.059c-.059.059-.059.177-.118.235.413.177.767.177.943.412.649.705 1.356.646 2.182.352v.118c.118.176.236.353.353.47-.059.059-.059.118-.117.176.412 1.176.471 1.235 1.473 1.235M64.378 151.863c.294-.294.412-.588.294-.941-.118-.294-.412-.411-.766-.47-.649-.117-1.238.176-1.71.529-.235.176-.177.588.118.764.59.411 1.238.353 2.063.118M185.171 235.14c-.531.177-.707.412-.648.999.059.294.176.588.353.941.708.294 1.002-.177 1.297-.588a.97.97 0 0 0-.118-1.175q-.441-.353-.884-.177M152.215 217.685c0 .706.354.999 1.474.941.294-.353.471-.706.589-1.058.118-.588-.177-.941-.825-.941-.767 0-1.238.412-1.238 1.058M56.242 100.615c.472 0 .766 0 .884-.353.118-.411-.059-.705-.412-.94-.354-.235-.767-.411-1.239-.411-.294 0-.707-.06-.825.235-.236.47.236.646.472.881.295.235.648.412 1.12.588M101.989 237.785c-.766.294-1.12.823-1.473 1.293-.118.117-.118.352-.059.529.118.294.353.235.648.176.354-.059.708-.176 1.061-.235.295-.059.59-.235.767-.47.236-.294.353-.706.177-1.058-.236-.412-.59-.412-1.121-.235M79.644 195.646c.354-.058.707-.117 1.061-.235.295-.117.53-.352.59-.705s-.118-.588-.472-.823c-1.002-.235-1.533.177-1.71 1.058-.117.412.06.764.531.705M95.74 170.14c-.353.294-.353.647.118.999.708.353 1.297.353 1.887-.059a.585.585 0 0 0 .236-.646c-.06-.235-.177-.47-.413-.588-.648-.117-1.297-.058-1.828.294M89.488 230.85c-.353.294-.884.646-.648 1.234.236.647.825.353 1.297.294.236 0 .53-.059.707-.118.236-.117.295-.352.295-.764-.472-1.116-1.002-1.293-1.65-.646M133.115 201.23c-.117.352 0 .646.295.764.826.411 1.533 0 1.828-1.176-.295-.47-.649-.587-1.002-.47-.472.118-.944.353-1.121.882M172.966 237.432c-.235-.294-.53-.294-.825-.235-.236.059-.413.294-.648.529-.059.235-.059.353-.059.47 0 .47 0 .941.589 1.058.531.118.767-.294 1.061-.646.059-.059.059-.118.118-.177.059-.352 0-.705-.236-.999M138.654 145.339c-.353-.411-.589-.823-1.12-.764-.471.059-.884.176-1.12.529-.118.117-.118.353-.059.529.118.47.531.705 1.002.705.649 0 1.003-.47 1.297-.999M153.571 149.864c-.236.294-.354.647-.118.999.177.294.53.529.943.529.295 0 .59-.117.825-.352.236-.177.295-.529.59-.353-.354-.47-.531-.999-1.179-1.175-.472 0-.826.058-1.061.352M150.563 128.237c0-.705-.236-1.117-.766-1.234-.531-.118-.944.176-1.356.47-.295.235-.236.587-.059.823.53.764 1.356.764 2.181-.059M146.733 130.235c-.413-.294-.943-.294-1.415-.294-.059 0-.177.176-.236.235-.118.529.059.999.531 1.234.471.236.943.294 1.474-.058.294-.588 0-.882-.354-1.117M172.378 179.955a.59.59 0 0 0-.766-.353c-.649.118-1.061.647-.943 1.176.117.47.53.646 1.002.705.236 0 .471-.059.766-.294.236-.529.118-.882-.059-1.234M183.399 142.401c-.059.293 0 .587.059.881.059.118.236.294.354.353.295.117.59-.059.884-.177.413-.176.59-.47.413-.999-.118-.235-.177-.352-.236-.411-.589-.588-1.238-.47-1.474.353M115.254 229.968c-.354.118-.413.412-.59.823 0 .47.177.764.531.647.766-.177 1.532-.412 2.299-.647.118-.059.236-.294.236-.47s-.177-.411-.295-.411c-.708-.059-1.474-.177-2.181.058M158.995 118.128c.354-.293.295-.646.177-.999-.177-.529-.59-.587-1.179-.529-.413.177-.708.294-.826.647-.117.411.177.705.413.94.413.294.943.294 1.415-.059M119.495 169.082c.353-.059.53-.294.589-.646 0-.412-.353-.882-.766-.882-.472 0-.825.177-1.179.47-.295.294-.295.471.354 1.058.353.059.648.059 1.002 0M120.381 114.955c.354-.588-.59-.823-.707-1.352 0-.118-.177-.176-.236-.294-.295-.294-.649-.352-1.003-.176-.471.235-.53.646-.176 1.175.235.177.412.353.53.412.59 0 1.12.999 1.592.235M99.098 233.847c.53.235 1.062.353 1.592.118.413-.177.649-.588.472-1.058-.118-.353-.472-.529-.944-.412-.471.059-.707.412-1.179.765-.058.293-.118.528.06.587M161.823 62.884c.413-.705.354-.94-.589-1.88-.944.411-.708 1.116-.649 1.763 0 .235.236.47.472.529.353 0 .648-.118.766-.412M132.584 93.563c.353-.236.353-.588.235-1-.176-.529-.53-.822-1.12-.764-.353.06-.53.235-.707.647-.059.47.118.705.354.881.412.353.825.47 1.238.236M10.079 111.311c.177 0 .295-.176.413-.294.176-.235.059-.47-.118-.646-.53-.706-1.297-.588-2.182-.412-.117.118-.176.177-.176.235.471.764 1.238 1.235 2.063 1.117M152.98 162.618c-.177-.177-.236-.412-.236-.647 0-.294-.177-.411-.531-.294-.059 0-.117 0-.235.059a.8.8 0 0 0-.236-.176 2.3 2.3 0 0 0-.531-.529h.118c-.236-.235-.471-.47-.648-.235a.45.45 0 0 1-.236-.118c-.354-.176-.59-.294-.943-.411l.059-.059c-.059-.411 0-.94-.059-.94-.59-.177-.354.411-.531.705-.118.176-.236.353-.295.529a.45.45 0 0 0-.236.117c-.235.177-.353.236-.53.412v-.059c-.236.118-.413.235-.354.411-.059.059-.118.118-.118.177-.236.352-.353.646-.471 1.058v.058l-.059-.058c-.059.176-.177.293-.236.352.177.059.295.118.471.118.059.059.118.176.177.235.531.411.944.764 1.533 1.058.118.117.236.235.354.294.059.117.118.176.177.293.177.236.353.294.589.412l-.059.059c.354.058.59-.059.531-.353.059-.059.118-.118.177-.235a35 35 0 0 1 1.709-.411c.354-.059.708-.118 1.003-.647v-.176c.058.117.117.235.117.352.118.059.177.059.236.118 0-.059-.059-.176-.059-.235-.059-.47-.294-.882-.648-1.234M153.629 164.146c.059.293.295.411.589.47-.176-.177-.294-.353-.589-.47M141.072 124.593c-.118.353-.118.764.295.999.176.118.471.177.766.177h.059v.058c.236 0 .295-.058.354-.176.059 0 .117-.059.176-.059.236-.352.295-.705.236-.999-.118-.411-.353-.646-.766-.705-.531 0-1.002.294-1.12.705M118.908 143.165c-.236.352-.472.47-.767.528-.059-.058-.118-.117-.236-.176-1.532-.646-1.768-.529-2.476.705-.176.294-.294.529-.589.647-.472.235-.354.588-.177.94.236.412.649.47.943.294.59-.353 1.238-.47 1.946-.588.589-.058 1.002-.47.943-1.293.059 0 .059.059.118.059.472 0 .825.059 1.238.118s.766-.059.884-.47c.118-.412-.059-.706-.412-.941q-.797-.705-1.415.177M109.948 143.341c0 .059.059.117.059.235.472.294.767.47 1.238.705l-.059.059c.354.176.59.294.767.059h.294c.295 0 .413-.059.531-.118.648-.352 1.356-.646 1.297-1.587-.059-.881-.825-1.116-1.651-1.41h.059c-.295-.176-.53-.294-.766-.118h-.295c-.472.118-.884.177-1.356.294l-.059.059c0-.059 0-.059.059-.117-.413-.294-.707-.529-1.002-.706s-.59-.176-.825.118c-.236.294-.236.823.117.94.649.176.885.588.944 1.176.177.293.353.47.648.411M115.959 245.778c-.294 0-.589.117-.825.352-.177.176-.295.412-.236.647a.49.49 0 0 0 .59.352c.353-.058.648-.176 1.061-.117 1.002.176 1.061.059 1.12-1.234-.59-.059-1.179 0-1.71 0M135.412 163.617c-.059 0-.118 0-.295.058-.648.412-.648.823-.294 1.293.294.412.825.471 1.356.118.353-.176.53-.529.471-.94-.177-.588-.707-.529-1.238-.529M186.349 108.608c-.354.352-.177.646.177 1.058.354.235.648.352 1.002.293.413-.058.649-.293.708-.764 0-.352-.059-.764-.472-.94q-.885-.265-1.415.353M162.709 67.41c.117-.588-.059-1.117-.59-1.47-.354-.235-.707-.235-1.061.06-.295.234-.236.528-.059.822.177.352.413.646.825.881.472.118.826.06.885-.293M177.151 205.579c-.707.176-.825.352-.648 1.469.118.235.177.353.236.411.353.294.766.529 1.179.294.53-.352.176-.764.059-1.116-.059-.177 0-.353-.059-.529-.059-.47-.295-.647-.767-.529M163.415 183.834c.177-.353.295-.706 0-1.058-.353-.412-.943-.529-1.533-.177-.353.177-.353.471 0 1.117.059.118.177.176.354.353.59.352.943.176 1.179-.235M88.607 158.445c-.118.47.412.529.707.646.177.059.295.177.472.236.353.176.707.117 1.002-.236.236-.352.177-.705-.236-1.057-.472-.235-.825-.235-1.179-.118-.295.176-.707.176-.766.529M137.654 121.89c-.059.352-.059.764.295.999q.619.352 1.238 0c.118-.059.295-.294.295-.412 0-.47-.354-.764-.708-.999-.294-.235-.648-.294-1.002.177-.118.117-.118.176-.118.235M159.702 196.469c-.472.588-1.061.882-1.12 1.587 0 .176.059.411.118.529.177.235.472.176.707.059.708-.412 1.061-1.058 1.061-1.822.059-.412-.235-.529-.766-.353M176.622 164.557c-.236.294-.177.646.118.823.413.294.472.705.59 1.116.058.177.235.294.412.236.177-.059.177-.294.118-.471-.059-.47-.177-.94-.236-1.586-.353-.412-.707-.471-1.002-.118M127.456 229.557c-.589.294-.884.823-.766 1.352.059.352.589.411 1.297.176.294-.118.471-.353.589-.823-.471-.764-.707-.94-1.12-.705M180.101 148.16c.354-.117.413-.411.472-.705.059-.235-.118-.47-.236-.764q-.707-.618-1.238 0c-.295.352-.236.764.118 1.175.236.177.53.353.884.294M89.194 117.717c.294-.176.53-.353.471-.705 0-.353-.295-.529-.59-.647-.235-.058-.471-.117-.707-.117-.354.059-.766.117-.943.529-.118.411.118.705.53.999.531.176.885.117 1.239-.059M121.324 199.173c1.297.529 1.474.47 1.946-.235.118-.235.177-.471 0-.706-.118-.117-.295-.235-.472-.235-.707 0-1.297.235-1.474 1.176M169.667 54.598c.117-.823-.236-1.234-.826-1.528-.177-.118-.354 0-.471.117-.295.412-.236.823.059 1.176.235.411.589.822 1.238.235M98.923 109.783c.118.412.236.823.412 1.234.118.353.295.353.826-.176.354-1.175.236-1.469-.53-1.646-.413-.117-.826.236-.708.588M101.161 205.578c-.177-.411-.472-.528-.766-.587-.413-.059-.708.117-.944.646-.117.353-.058.588.236.823.649.529 1.061.294 1.474-.882M151.863 123.712c-.354.235-.413.822-.059 1.116s.766.353 1.356.177c.413-.471.472-.882.118-1.235-.413-.352-.943-.352-1.415-.058M85.66 223.268c.058-.529.058-.94-.413-.94-.59-.059-1.002.294-1.12.999-.06.235 0 .47.236.647.294.235.648.117 1.237-.412-.058-.058 0-.176.06-.294M57.3 121.185c.119-.236.06-.471-.117-.706-.295-.352-.707-.411-1.18-.411-.353 0-.589.117-.648.588.354.587.767.881 1.356.881.295.059.472-.059.59-.352M150.094 205.05c-.177.059-.295.059-.295.059-.766.411-1.002.94-.707 1.351.294.353.943.353 1.473 0 .295-.235.59-.47.531-.881-.118-.412-.472-.529-1.002-.529M119.025 93.974c.058.176.176.352.353.587.295.118.472.177.649.177.53-.118.766-.53.707-.94-.118-.588-.766-1-1.474-.882-.294 0-.412.411-.235 1.058M151.152 151.745h.177c.649-.999.531-1.175-.648-1.41 0-.059.059-.059.059-.118-.531.059-.767.235-.531.588-.059.059-.059.117-.118.235 0 .059 0 .235.118.294-.059 0-.118 0-.177.058a3 3 0 0 1-.353.412c-.472.529-.472.705-.118 1.058.471.587.943.705 1.474.411.589-.353.353-.881.117-1.528M87.487 164.792c.236-.118.413-.294.354-.588-.059-.176-.177-.352-.295-.411-.59-.235-1.179-.411-1.827.176.59.999 1.06 1.176 1.768.823M205.449 208.694c-.531.117-.885.587-.708 1.057q.088.44.708.706c.353.058.648.058.766-.118q.354-.44.177-1.058c-.059-.411-.531-.705-.943-.587M118.613 120.185c.354.235.707.177 1.12-.176.295-.588.236-.94-.295-1.175-.412-.177-.825-.235-1.238.058-.059.059-.177.236-.177.353.059.411.236.705.59.94M146.145 145.163c.236.352.236.705-.059 1.175-.059 0-.118-.059-.177-.059-.413.059-.707.118-1.002.235-.236.118-.295.353-.236.588s.236.411.472.411c.295 0 .589-.058 1.002-.176v.118c.236.176.354.235.648.294-.059.058-.059.058-.059.117.649.118.767-.294.885-.705.059 0 .059.059.118.059l.648.646c.472.588 1.061.882 1.769.47.177-.117.471-.117.825-.117v.058c.825 0 1.179.647 1.828.765.294.058.648-.177.707-.471.059-.352-.118-.646-.472-.705a8.3 8.3 0 0 0-1.709 0v-.176a30 30 0 0 0-3.007-1.705c0-.058 0-.058.059-.117-.236-.176-.354-.294-.53-.353 0-.058 0-.176-.059-.235-.177-.705-.59-1.116-1.12-1.41 0-.059 0-.118-.059-.235-.236-.294-.59-.412-.413-.706.53-.822.295-1.351-.413-1.939-.471-.411-.412-.47.413-1.117v.118c.589-.059.648-.118.413-.529a.45.45 0 0 0 .117-.294c.59-.999.472-1.822.118-2.762-.353-.94-1.179-1.234-1.945-1.587l-.531-.176c-1.12-.412-2.181-.47-3.006.587h-.236s0-.058-.118-.058c-.472-.235-.825-.647-1.238-.177-.295.353.059.647.236.941.059.058.059.058.236.058 0 0 0 .059-.059.059h-.118l-.059.118c-.413.411-.708.646-1.002.94l.059.059c.294.117.53.117.825.059 0 .058 0 .176.059.235 1.356 1.175 2.181 2.586 3.596 3.408.118.059.118.471.059.764v-.058c-.236.294-.59.47-.413.822.118.177.354.118.531-.058.059.058.118.058.177.117.943.353 1.297 1.058 1.886 1.763-.059 0-.118.059-.118.059.236.529.354.705.472.882m1.356 1.998s0 .059 0 0c.059-.059.059-.059.059 0zM198.376 196.117c-.413.117-.649.352-.59.764 0 .47.354.881.767.881.412 0 .648-.294.766-.646.059-.235-.059-.47-.118-.764-.354-.235-.589-.294-.825-.235M105.405 118.599c.177.352.295.528.354.764a.44.44 0 0 0 .413.293.65.65 0 0 0 .589-.352c.177-.412.177-.882-.059-1.234-.235-.353-.648-.412-1.002-.294-.353.058-.471.352-.295.823M110.005 207.166c.236-.236.295-.706.118-1-.177-.235-.353-.293-.648-.235-.472.059-.825.235-1.002.823.766.764 1.061.823 1.532.412M193.776 192.59c-.059-.47-.295-.94 0-1.41.058-.118-.236-.294-.354-.176-.531.411-1.179.705-1.415 1.41-.059 0-.177.059-.236.059-.825.059-1.238.529-1.533 1.116-.235.353-.412.529-.884.529-.295 0-.413.236-.413.529s.354.588.649.471c.413-.177.766-.236 1.238-.118.589.176 1.061-.059 1.592-.411.412-.294.471-.706.53-1.117 0-.118.059-.176.177-.353 0 0 .059 0 .059.059h.118c.295-.117.53-.294.472-.588M71.744 130.059c.118-.294-.177-.764-.59-.823-.47-.059-1.001-.059-1.591-.059-.295.177-.295.353-.177.529.413.529 1.002.705 1.65.764.355.059.59-.059.708-.411M99.335 102.966c.412.117.766-.059.884-.412.118-.411.059-.764-.295-.999-.353-.235-.707-.176-1.12.176q-.354.97.53 1.235M110.831 240.841c.177-.235.118-.47 0-.705-.177-.294-.472-.412-.825-.294-.531.117-.649.529-.59 1.117.236.528.531.646.943.411.177-.118.295-.353.472-.529M99.983 143.87c-.118.294-.06.646.236.823a1.096 1.096 0 0 0 1.355-.235c.354-.471.059-.764-.412-1.117-.59-.118-1.002.059-1.18.529M127.987 163.205c.118.294.354.529.708.471.235 0 .53-.118.648-.294.354-.47.649-.941.884-1.528.059 0 .118.058.236.058.649.294 1.179.412 1.71.118.471-.235.53-.705.118-1.058-.236-.176-.472-.353-.767-.529-.471-.235-.825 0-1.238.176-.294.118-.471.353-.412.823h-.118c-.708.353-1.297.529-1.651 1.058-.177.235-.236.412-.118.705M166.719 211.632c-.295.059-.413.235-.472.529s-.118.588-.177.94c0 .353.177.588.531.647.472.059.825-.059.884-.47.059-.294-.059-.588-.059-1.058-.118-.47-.354-.647-.707-.588M74.928 123.065c.353-.118.648-.47.59-.823-.06-.411-.413-.587-.767-.587-.177 0-.354.058-.649.176-.235.294-.353.529-.235.764.176.352.59.529 1.06.47M101.339 123.124c.413-.176.648-.353.53-.705-.058-.353-.294-.529-.648-.529-.177 0-.354 0-.531.058-.235.059-.471.118-.53.412-.059.235.059.47.236.646.235.177.53.177.943.118M125.567 208.223c.177-.47.177-.881-.531-.999-.53.176-.825.529-.825.999a.59.59 0 0 0 .589.588c.354.059.59-.176.767-.588M153.985 66.587c.295.294.708.235 1.179.117.354-.764.354-.94-.117-1.293-.413-.352-.944-.47-1.18-.235-.235.294-.235 1.117.118 1.41M142.194 113.721c.294.176.589.235.825 0 .472-.353.295-.764.059-1.117-.059-.059-.059-.059-.236-.176-.589-.235-.943-.118-1.12.411-.059.353.118.647.472.882M137.064 187.713c-.118-.764-.649-.412-1.003-.529-.294-.059-.589.058-.825.352-.177.294-.236.529-.059.823.177.235.413.235.649.235.589.059.884-.353 1.238-.881M163.948 171.903c0-.47-.059-.881-.295-1.175-.177-.294-.589-.294-.766-.059a6 6 0 0 0-.354.647c-.177.352-.118.705.177.999.413.293.648.235 1.238-.412M146.379 158.033c-.236.059-.413.236-.649.529 0 .588.295.941.59 1.235a.54.54 0 0 0 .707.058c.236-.117.354-.352.295-.587-.059-.294-.177-.588-.236-.882-.059-.411-.353-.47-.707-.353M141.487 173.96c-.118.118-.059.353.118.47.531.353 1.061.294 1.592 0 .353-.235.412-.587.118-1.057-.885-.471-1.356.117-1.828.587M155.221 111.899c-.235-.294-.412-.47-.648-.529a.87.87 0 0 0-1.002.352c-.236.353-.118.706.177.999.294.294.648.412 1.002.236.412-.236.589-.529.471-1.058M115.37 64c.236-.352.059-.704-.294-.94-.177-.117-.413-.235-.649-.352-.236-.118-.53 0-.648.176-.177.235-.118.47.059.647.118.117.235.294.471.529.472.293.826.293 1.061-.06M76.343 207.93c.412-.059.884-.177 1.179-.471.177-.176.177-.47-.118-.764-.59-.235-1.061-.293-1.533.059-.295.176-.412.47-.295.823.118.353.472.353.767.353M152.688 237.961c-.295.294-.236.705 0 .999.413.47.766.294 1.179-.235.177-.646.707-1.234-.059-1.587-.472-.176-.766.412-1.12.823M168.427 178.721c-.412-.471-.825-.941-1.12-1.47-.059-.058-.177-.058-.295-.058-.059 0-.117.117-.117.117.294.764-.059 1.704.825 2.41 1.002-.294 1.12-.529.707-.999M195.368 234.611c-.354.177-.471.647-.295.941.236.352.531.705 1.121.47.353-.47.235-.882-.059-1.234-.177-.236-.472-.353-.767-.177M61.37 135.877c.355.059.59.176.826.059.413-.177.53-.47.413-.882-.118-.352-.413-.411-.708-.411-.294 0-.59.176-.825.411-.236.294-.059.588.295.823M124.684 107.315c.118.352.413.646.825.587.472-.059.531-.411.531-.94 0-.235.059-.353.059-.47.059-.177.118-.353-.118-.47-.059-.059-.236-.059-.354 0-.295.176-.53.293-.766.529-.236.176-.295.47-.177.764M156.105 211.103c-.412.118-.825-.294-1.238.118.177.352.354.646.472.94.177.294.412.47.766.294.413-.176.531-.47.472-.882 0-.352-.236-.529-.472-.47M128.28 129.706c.235-.235.294-.529.117-.881-.176-.412-.589-.412-.943-.47-.589-.059-.707.058-.825.94.177.235.295.411.413.529.471.235.884.176 1.238-.118M183.048 161.971c-.235-.529-.53-.823-1.061-.705-.236.059-.471.176-.471.47a.99.99 0 0 0 .766.94c.413.059.648-.176.766-.705M114.604 236.727c-.177.352-.118.705 0 1.175-.059.529-.059.882.412.999.354.059.472-.176.531-.764.059-.411.059-.822.118-1.293a.516.516 0 0 0-.413-.529c-.294 0-.471.177-.648.412M150.742 228.675c-.472.412-.531 1.176-.118 1.47.294.235.589-.059.943-.294.471-.47.413-.882 0-1.234-.236-.177-.531-.177-.825.058M110.42 183.892c-.413.294-.59.588-.177 1.176 1.002.117 1.356-.059 1.532-.588.059-.117-.059-.411-.176-.47-.354-.294-.767-.411-1.179-.118M172.553 189.828c.236-.587.708-.94 1.238-1.234.295-.176.177-.764-.177-.882-.589-.176-.825-.058-1.355 1-.059.411-.118.705-.118 1.057 0 .118.118.236.176.294.059-.058.236-.117.236-.235M85.422 186.361c.295-.235.236-.529 0-.882-.707-.176-1.18.059-1.592.47-.118.118-.177.353-.059.529.06.118.177.177.295.235.472.118.943 0 1.356-.352M116.784 111.664c.059.117.177.176.236.235.413.294.884.352 1.12 0 .354-.412.177-.764-.413-1.117-.294-.059-.471-.117-.648-.059-.531.177-.648.588-.295.941M128.162 125.24c.236-.353.118-.706-.236-1.058-.412-.118-.707-.118-1.002.059a.65.65 0 0 0-.354.587c.059.353.236.529.59.647.354.058.707.117 1.002-.235M137.241 173.667c.059-.294 0-.588-.295-.823-.354-.235-.708-.177-1.179-.059-.531.529 0 .823.118 1.175.118.235.294.353.589.294.354-.059.649-.176.767-.587M110.062 197.527c-.176.823-.059 1.117.413 1.176.531.058 1.061-.177 1.179-.588.118-.353-.118-.764-.471-.882-.354-.117-.708 0-1.121.294M131.226 225.032c.177-.059.354-.177.472-.294.236-.235.236-.529-.059-.94-.236-.236-.354-.353-.531-.471-.294-.176-.589-.235-.884 0s-.118.529-.059.823c.059.118.059.235.118.353.236.352.472.646.943.529M90.67 79.458c.295-.06.413-.236.472-.53.06-.352-.059-.646-.294-.822-.354-.235-.708-.47-1.12-.588-.413.529-.413.882-.06 1.293.236.294.472.705 1.003.646M140.367 165.556c0-.118-.118-.411-.236-.411-.708-.059-1.238-.529-1.828-.706-.059-.058-.236.059-.412.235.412.882 1.414 1.47 2.122 1.293.177-.058.354-.293.354-.411M162.236 199.055c-.118.294.059.823.354.999a.75.75 0 0 0 .707 0c.295-.176.413-.411.413-.881-.236-.412-.531-.47-.884-.47-.236-.059-.472.058-.59.352M130.637 127.179c0 .47.353.823.766.882.472.058.884-.059.766-.764-.294-.412-.589-.647-.943-.647-.295-.059-.589.235-.589.529M105.937 185.773c.118.235.413.294.649.235.353-.059.707-.117 1.061-.235.118-.059.236-.294.236-.47s-.118-.353-.236-.47c-.413-.294-.825-.177-1.356.059-.295.293-.59.528-.354.881M180.629 142.988c-.177 0-.354.118-.59.353-.117.294-.176.47-.117.646q.176.794.884.706c.53-.118.825-.529.766-1.058-.118-.47-.412-.705-.943-.647M176.68 233.318c-.176.47-.118.999-.059 1.587.118.176.177.235.177.235.531-.235 1.12-.999 1.179-1.469 0-.353-.235-.588-.53-.705-.236-.177-.649.058-.767.352M104.758 68.997c.059.058.118.058.236.176.177.058.236.117.295.058.648-.352.766-.646.471-1.116-.235-.353-.53-.529-.943-.353s-.472.588-.059 1.234M188.177 92.505c0-.118-.118-.236-.236-.412-.884-.117-1.002-.059-1.002.411-.059.588.177.94.589.94.413.06.649-.234.649-.94M57.422 116.541c.117.412.471.647 1.178.588.177 0 .295-.176.531-.352-.295-.823-.59-.941-1.297-.706-.295.059-.472.235-.413.47M176.386 225.796c-.413.293-.413.764-.354 1.175.059.353.53.588.884.411.531-.293.531-.47.236-1.469-.295-.235-.531-.294-.766-.117M116.017 135.289c.118.177.412.294.707.412.472-.059.707-.235.766-.588 0-.176.059-.353-.059-.529-.176-.411-.825-.47-1.296-.118-.295.235-.354.529-.118.823M131.699 217.744c-.413.059-.707.235-.825.647-.118.411 0 .705.53.881.472-.176.708-.411.885-.764.177-.411-.177-.823-.59-.764M86.307 107.315c-.118.235-.236.352-.295.411-.295.235-.53.529-.236.882.295.293.649.352.943.058.354-.294.295-.587.06-.94q-.178-.264-.354-.529c0-.059.059-.059.118-.059.53 0 .884-.176 1.12-.47.177-.235.471-.588.412-.764a2.4 2.4 0 0 0-.707-.999c-.53-.411-1.356-.235-1.828.294-.412.529-.412 1.117.177 1.645.177.177.413.236.649.353 0 .059 0 .059-.06.118M160.883 133.526c.177.471.471.647.884.706a.734.734 0 0 0 .825-.588c.059-.353-.235-.705-.648-.764-.413 0-.825.059-1.061.646M50.464 126.709c-.177.411.117.705.412.94.06.059.118.059.295.118.53.059.884 0 .943-.47.06-.471-.353-.647-.707-.706-.295 0-.708-.352-.943.118"/><path d="M170.843 157.975c.295-.177.59-.294.354-.647-.177-.235-.412-.058-.648 0-.118.059-.236.059-.472.059-.295 0-.53-.059-.648 0-.413.176-.531.47-.413.882.177.411.531.529.884.293.295-.235.649-.411.943-.587M164.829 202.229c1.12 0 1.533-.647 1.002-1.646-.059-.176-.235-.294-.471-.294-.708.588-1.002 1.235-1.356 1.763.059-.058-.059.059.059.059.413.059.589.118.766.118M163.3 73.404c.059.059.118.059.295.118.472.058.766-.06.766-.412.059-.47-.294-.823-.766-.881-.236-.06-.531 0-.649.235-.235.411 0 .705.354.94M190.886 129.06c-.059.293.059.47.295.646.413.235.884.176 1.12-.294.118-.176.059-.47 0-.823-.236-.176-.413-.293-.59-.293-.53-.059-.766.176-.825.764M109.121 168.906c1.002.646 1.002.646 1.474.176l.825-.822c-.943.176-1.768-.118-2.299.646M114.074 105.787q.177.352.354.529c.295.293.707.293 1.002 0 .177-.177.118-.471-.059-.706-.236-.293-.53-.529-.943-.352-.177.117-.236.294-.354.529M74.81 194.471c.06.117.295.235.413.235.177.059.353 0 .53 0 .295-.059.59-.235.649-.529.059-.411-.177-.646-.708-.764-.353.118-.59.235-.766.411-.177.177-.295.412-.118.647M154.869 109.137c.236-.236.177-.588-.059-.823-.176-.177-.412-.235-.766-.412-.472.059-.707.235-.648.588.059.411.176.705.589.823q.531.176.884-.176M39.557 181.013c.177-.353.177-.588.06-.764-.178-.235-.531-.353-.826-.294-.354 0-.59.176-.649.529-.059.411.354.705 1.002.764.06-.059.177-.118.413-.235M171.078 213.924c.59.588 1.002.588 1.12.118.118-.588.177-1.176.295-1.881-1.12.705-1.12.705-1.415 1.763M108.002 234.552c.295-.235.531-.528.295-.94s-.648-.529-1.179-.176c-.413.411-.707.764-.236 1.175.354.294.767.235 1.12-.059M169.428 164.675c-.589 0-.884.235-1.002.822a3.5 3.5 0 0 0-.118.823c-.059 0-.118.059-.177.059-.53.176-.884.411-1.12.823-.413.646.118 1.587.884 1.587.531 0 1.474-.529 1.592-1.058.177-.588-.118-1.058-.707-1.411.059 0 .118-.059.177-.059.353-.352.648-.646.825-.94.059-.118.059-.353 0-.529 0 0-.177-.117-.354-.117M141.074 226.266c.295-.353.354-.647.118-.882-.118-.117-.295-.294-.413-.235-.471 0-.884.47-.943.94 0 .118.118.353.295.412.294.059.589 0 .943-.235M98.331 111.84c-.766.176-.943.352-.825.705.177.529.766.764 1.179.529.295-.176.236-.588-.059-1.117-.059-.058-.118-.058-.295-.117M158.17 126.709a.585.585 0 0 0-.826.117c-.236.294-.118.764.177 1 .354.235.707.176 1.179.058.354-.764-.177-.94-.53-1.175M112.835 88.097c.177-.294.118-.588-.118-.823-.413-.411-1.002-.588-1.12-.353-.236.353 0 .706.118 1.058 0 .06.059.118.236.235.412.118.707.177.884-.117M169.723 124.241c-.413.411-.708.822-.472 1.586h-.118c-.236.588-.177.999.413 1.058.353.059.471-.294.353-.646.059 0 .118-.059.177-.059.236-.529.413-.882.531-1.293.118-.294.177-.588-.177-.764-.354-.235-.531-.059-.707.118M206.63 165.556c-.353.118-.471.353-.412.647.059.352.294.705.707.646.354 0 .59-.235.649-.588.058-.352-.177-.587-.472-.705zM204.799 58.477c-.649-.353-.884 0-1.002.47-.059.411.235.764.53.881.354.059.649-.294.649-.94.059-.118-.059-.235-.177-.411M123.978 21.51c.412-.235.471-.588.236-.94-.118-.235-.413-.353-.649-.235-.354.117-.413.411-.354.764 0 .176.059.352.354.529.177-.06.295-.06.413-.118M96.858 68.115c-.236-.294-.708-.411-.943-.176-.413.41-.118.764.176 1.116.06.059.177.118.413.235.649-.529.708-.764.354-1.175M50.7 61.591c.118-.176.118-.47.059-.705-.118-.353-.413-.47-.766-.411-.354 0-.59.235-.708.646.06.47.236.705.59.764.353.118.648.059.825-.294M129.576 87.803c-.236.411-.118.705.236.999.118.059.235.117.412.235.236-.118.472-.176.531-.353.177-.528 0-.822-.531-.999-.236-.117-.53-.117-.648.118M80.766 85.393c.059.06.236.118.471.177.413-.06.649-.235.59-.47-.118-.588-.884-1.117-1.474-1.117-.059 0-.236.117-.236.235-.177.588.354.823.649 1.175M137.358 206.872c.177-.177.295-.412.236-.647-.059-.294-.354-.352-.589-.411-.413-.059-.708.176-.767.705.413.646.708.705 1.12.353M125.45 177.193c-.472-.647-.708-1.058-.354-1.528.118-.118.059-.353-.177-.471s-.472-.176-.707.059c-.118.118-.118.294-.118.588.707.117.648.881 1.356 1.352M134.233 181.718c-.118.352.118.764.59.999.353.117.648.059.766-.294.059-.235 0-.47-.059-.823-.884-.352-1.179-.294-1.297.118M178.92 152.509c-.177-.235-.354-.411-.59-.764h.118c.177-.235.354-.411.354-.529 0-.47-.295-.705-.708-.646-.353.058-.53.294-.471.646.059.176.177.294.354.47-.059 0-.059.059-.118.118-.118.411-.236.705-.295.999-.059.353.177.588.413.705.294.177.589.059.825-.176s.295-.529.118-.823M111.949 74.874a.9.9 0 0 0 .354.881c.235.176.471.118.648-.059.118-.117.236-.293.236-.47 0-.294-.236-.529-.531-.646-.294-.118-.53 0-.707.294M114.723 195.529c-.177.176-.354.353-.236.647.118.293.354.293.649.293.413 0 .766-.117.825-.529.059-.352-.177-.529-.648-.646-.236.059-.413.118-.59.235M156.992 253.946c.708.412 1.179.177 1.238-.528 0-.177-.059-.412-.236-.471-.118-.058-.353-.058-.53 0-.295.177-.413.529-.472.999M95.974 209.692c-.059.588.354.706.944.647.412-.176.59-.411.59-.764 0-.294-.119-.47-.355-.588-.471-.235-1.12.118-1.179.705M146.791 212.69c.471.176.825 0 1.12-.353.295-.352.177-.646-.295-.94-.707-.059-1.061.117-1.12.764 0 .176.059.47.295.529M128.455 170.904c-.471.294-.412.705-.412 1.058 0 .294.118.588.471.705.295.118.59 0 .826-.235.412-.294.412-.529 0-.999-.059-.117-.177-.176-.354-.294.059 0 .118-.059.177-.117.53-.882 1.12-1.058 1.945-.588.118.059.354.059.531 0 .236-.118.177-.411.177-.646-.177-1.058-.944-1.529-1.769-1.94-.059 0-.118.059-.177.118v-.059c.118-.059.177-.059.177-.235-.177-.647.118-.941.354-1.352.177-.411.177-.823.059-1.293-.177-.529-.472-.646-1.002-.352-.531.411-1.12.822-1.651 1.234-.177.176-.413.294-.295.587.059.118.295.294.413.294.471.059.825.118 1.12.705-.059 0-.059.059-.118.059-.236.705.118.882.59.882 0 .059-.059.117-.059.176-.472.764-.177 1.587-.708 2.292-.177.059-.236.059-.295 0M120.616 123.065c-.177-.588-.531-.764-1.002-.764-.236 0-.472.118-.531.411-.059.412.177.764.707.941.413.117.708-.059.826-.588M175.913 117.129c-.118.882.059 1.176.649 1.176.413.059.707-.353.589-.706-.176-.587-.53-.764-1.238-.47M190.123 205.579a.64.64 0 0 0-.353.587c0 .353.176.529.589.647.295-.059.472-.118.59-.235.176-.177.235-.412.118-.647-.177-.352-.59-.529-.944-.352M184.638 189.534c0-.235-.117-.47-.412-.529-.354-.058-.59.059-.826.294-.235.235-.294.529-.058.882.353.059.589.117.825.059.354-.118.471-.353.471-.706M145.081 80.222c.118-.353-.059-.588-.295-.764-.236-.118-.472-.177-.708-.06-.294.177-.294.471-.117.882.176.118.294.235.412.235.295.118.59.06.708-.293M169.664 204.345c-.826-.529-.826-.529-1.415.117-.059-.059-.177-.059-.236-.117-.531-.059-.884-.588-1.356-.236a1.38 1.38 0 0 0-.589 1.293c0 .294.176.471.471.529h.177c.413.059.707-.294 1.061-.411.413-.059.708.47 1.179.117l.118.118c.177.059.295.059.59 0 0 .059-.059.059-.059.118q.795.087.884-.529c.059-.471-.177-.706-.59-.764zM138.301 87.568a.66.66 0 0 0-.177-.647c-.236-.235-.531-.294-.825-.117-.295.176-.354.47-.118.881.235.177.412.235.589.235.236.06.472-.058.531-.352M152.923 87.392c-.354-.94-.708-1.176-1.238-.94-.236.117-.354.352-.295.587.118.294.354.529.649.646.294.118.589.06.884-.293M150.622 132.704c-.708.117-.649.646-.767 1.116.649.177 1.062.059 1.474-.294v-.117c0-.588-.294-.764-.707-.705M176.446 215.511c0-.118.059-.235 0-.353-.059-.176-.176-.294-.294-.411-.236-.176-.472-.059-.649.117-.236.177-.295.412-.236.647.118.47.708.646.885 1.117-.059.058-.118.058-.177.117-.472.705-.177 1.234.295 1.704 0 .059-.059.118-.059.177.118.529.176.999.294 1.41.059.118.295.235.413.235.295.059.472-.176.531-.411.118-.294.118-.588-.118-.882a5.4 5.4 0 0 0-.826-.822l.118-.118c.059-.411.118-.705.177-1.058.059-.352-.177-.529-.53-.529 0-.059 0-.117.059-.176 0-.294.058-.529.117-.764M195.252 193.296c-.472-.235-1.002-.235-1.179.117-.236.353.059.764.707 1.058.118.059.236.059.472.059.472-.705.413-.999 0-1.234M174.383 103.201c-.354.235-.412.529-.236.94.059.117.118.235.295.353.236.058.354.117.472.058.53-.294.648-.587.412-.999-.235-.294-.648-.47-.943-.352M105.819 167.731c-.177.058-.354.176-.413.293-.059.118.059.353.177.471.354.293.708.411 1.179.117.177-.117.413-.235.472-.411-.531-.294-.884-.647-1.415-.47M137.302 132.88c.472.117.825-.059 1.002-.529.059-.118-.059-.353-.177-.588-.235-.117-.471-.176-.589-.176-.413.059-.649.353-.59.764q-.088.44.354.529M115.9 151.334c-.117-.059-.235 0-.471.058-.354.353-.472.706-.236 1.058.177.235.413.235.648.177.354-.059.708-.294.767-.706.059-.47-.413-.529-.708-.587M158.523 93.504c0 .176.177.352.354.293.472-.117.767-.41.943-.822.118-.412-.118-.706-.589-.94-.708.293-.708.881-.708 1.469M36.608 119.245c.235-.294.117-.705-.295-1.058-.06-.059-.236 0-.413.059-.471.411-.53.764-.059 1.117.236.176.53.176.767-.118M165.597 198.173c-.472.647-.708 1.293-.118 1.999l.118-.059c.294-.118.53-.176.589-.294.295-.47.177-1.234-.295-1.646 0-.058-.236-.058-.294 0M95.208 203.815c.177-.176.177-.47.118-.705-.177-.411-.53-.411-1.002-.117-.295.47-.177.764.236.94.236.176.471.118.648-.118M172.672 202.229c.354-.118.412-.412.236-.882-.059-.117-.177-.176-.354-.294-.236 0-.354 0-.472.059-.412.235-.412.588-.177.94.118.235.413.294.767.177M125.037 102.613c.059-.47-.118-.705-.413-.823-.353-.176-.766-.059-.943.294s.059.705.413.882c.354.117.589-.059.943-.353M139.716 143.164c0 .412.353.471.648.412s.472-.235.413-.529a5 5 0 0 0-.531-1.411c.059-.058.059-.176.118-.235-.059-.352-.118-.587-.236-.764-.412-.47-.884-.529-1.238-.235-.353.353-.412.882-.059 1.293.118.177.413.294.767.412 0 0-.059.058-.059.117.177.353.118.647.177.94M118.611 242.31c-.118.059-.177.177-.295.412.118.764.354.94.708.822.53-.176.766-.529.648-.999-.118-.411-.471-.529-1.061-.235M89.845 77.283c.295-.94-.354-1.293-.943-1.645-.177-.118-.53.117-.53.352q0 .353.176.705c.236.47.766.588 1.238.706 0 0 0-.06.059-.118M64.847 139.638a.69.69 0 0 0-.53.588c.176.353.353.47.648.47.354 0 .766.059 1.002-.294.118-.176.118-.352-.059-.529-.295-.352-.648-.352-1.061-.235M121.561 60.357c.354-.235.413-.705.118-1.117-.177-.235-.472-.41-.826-.235-.412.235-.353.588-.117.94.058.118.176.177.353.353.236.06.354.118.472.06M103.286 233.142c.118.118.295.176.59.235.236-.117.471-.176.53-.353.177-.293.118-.587-.118-.822-.294-.235-.825-.177-1.002.058-.236.294-.236.647 0 .882M166.658 175.664c-.118-.352-.236-.587-.413-.705-.353-.235-.825-.117-1.002.177-.177.293-.059.764.236.999.354.294.649.235 1.179-.471M92.436 70.407c.177-.235.236-.411.177-.588-.236-.47-.53-.823-1.061-.764-.06 0-.236.118-.236.235-.177.588.294.882.648 1.117.06.059.236.059.472 0M170.844 252.83c-.177.352-.236.764.118.999.412.235.825.176 1.002-.529 0-.411.059-.764-.295-.94-.236-.118-.648.117-.825.47M177.563 143.929c-.412.117-.412.411 0 1.057.767-.176.944-.411.767-.764-.177-.293-.472-.411-.767-.293M154.574 144.928c.059.058.118.058.294.117.59-.47.649-.646.354-.94-.236-.235-.53-.353-.766-.059-.354.294-.236.588.118.882M169.372 229.322c-.413.47-.236.999.648 1.234.354-.353.472-.705.295-1.058-.177-.411-.648-.47-.943-.176M26.056 182.893c.236-.293.06-.587-.472-.94-.058 0-.117 0-.294.059-.472.47-.354.764.059 1.058.294.059.53.059.707-.177M93.028 84.63c.06-.118 0-.353 0-.53-.059-.352-.295-.528-.766-.47-.295.235-.413.47-.295.706.118.176.295.41.472.528.236.118.471 0 .59-.235M155.338 259.001c-.236.235-.295.529-.059.823s.531.176.825 0c.118-.059.118-.176.177-.412 0-.176 0-.235-.059-.293-.236-.412-.53-.471-.884-.118M151.095 112.075c-.295.235-.177.529-.059.823.177.294.354.47.708.588.294.117.648-.177.589-.471-.059-.235-.177-.411-.412-.705-.354-.235-.59-.411-.826-.235M170.725 189.534a6.5 6.5 0 0 0-1.356-.764c-.059-.058-.235.059-.294.118s-.059.294-.059.294c.353.352.648.764 1.061.999s.707-.059.648-.647M123.564 147.807c-.177.412-.354.647-.472.882-.118.294.059.47.295.588.354.117.648 0 .825-.235.177-.236.118-.471-.059-.706-.176-.235-.53-.294-.53-.646v-.118.118c-.059 0-.059 0-.059.117M158.345 71.935c-.236-.118-.471-.118-.648.117-.059.118-.118.353-.059.53.118.234.236.41.412.587.413.353.708.235.885-.646-.236-.294-.354-.47-.59-.588M100.277 168.906c-.295.118-.649.235-.531.588.118.294.413.411.766.411s.59-.176.767-.411c.236-.353.118-.588-.413-.705-.236 0-.413.058-.589.117M207.808 100.38c.118-.235.177-.353.177-.47 0-.412-.177-.706-.649-.706-.353 0-.707.353-.707.706 0 .47.354.587.707.646.118 0 .236-.059.472-.176M192.126 163.264c-.471.059-.589.353-.412.823-.059 0-.118 0-.177.059-.236.176-.413.235-.59.352l-.353.177c-.295.176-.354.47-.236.764.177.293.766.352.943.117.236-.294.472-.646.648-1.117.059.059.118.059.177.118.59 0 .767-.294.708-.705.059-.47-.236-.647-.708-.588M90.553 183.657c.177-.411 0-.705-.826-.881-.471.705-.471.94-.177 1.117.413.176.885.058 1.003-.236M165.834 184.95c-.176-.117-.412-.235-.648-.235s-.413.235-.472.471c-.059.47.236.705.885.822.059 0 .118-.058.235-.176q.442-.617 0-.882M65.967 128.472c-.058.411.295.529.59.588s.648.117.825-.235c.177-.353-.118-.529-.471-.823-.53-.118-.885 0-.944.47M96.799 78.694c-.708-.412-.944-.412-1.062-.118a.627.627 0 0 0 .354.882c.354.117.53-.06.708-.764M203.268 116.248c-.354.059-.649.47-.531.823.177.47.531.352.885.176.059-.059.059-.059.176-.235.118-.588-.117-.823-.53-.764M159.289 121.772c.236.059.471.059.648-.176.295-.353.236-.647-.059-.94-.059-.059-.177-.118-.412-.177-.354.059-.59.177-.649.47-.118.412.059.706.472.823M158.112 114.25c-.059.529.295.881.589 1.293 0 .058.295 0 .295-.059.236-.588.354-1.176-.471-1.587-.236.059-.413.176-.413.353M56.772 57.595c.117 0 .177-.118.353-.294.06-.176.06-.235 0-.294-.118-.352-.294-.529-.707-.411-.236.059-.472.235-.413.529.118.352.413.47.767.47M183.814 156.212c.236.117.472 0 .649-.236.177-.235.059-.47-.118-.646-.236-.176-.472-.176-.649 0-.059.059-.118.235-.176.411.058.177.117.412.294.471M93.145 156.976c0 .352.412.47.884.352.236-.059.471-.176.471-.411.06-.412-.235-.47-.648-.529-.413.117-.708.176-.708.588M47.34 139.227c.06-.177 0-.412-.176-.47-.472-.235-.943-.177-1.474.235-.059.646.295.646.708.646.353.059.707 0 .943-.411M52.528 133.115c.059-.118.059-.235 0-.47-.177-.177-.236-.294-.354-.294-.354-.118-.649 0-.767.352-.117.353 0 .647.354.764.354.059.59 0 .767-.352M38.024 144.751c.176.294.471.412.766.294.471-.176.354-.529.118-.999-.354-.235-.708-.235-.944 0a1 1 0 0 0 .06.705M150.92 180.719v-.294c0-.235 0-.411.059-.646l.059.058c.236-.352.295-.587 0-.764 0-.058 0-.117-.059-.235 0-.058-.059-.176-.118-.352h.118c.354-.529.589-.941.825-1.411.236-.411.059-.764-.354-.94-.353-.118-.825.059-.943.411-.059.235-.059.47-.059.706 0 .293-.118.47-.236.705-.117 0-.176 0-.294.059-.767-.118-1.297-.588-1.946-.353-.53.235-.943.059-1.356-.353-.471-.411-1.002-.705-1.709-.705-2.005 0-2.005 0-3.184 1.704-.118.177-.177.294-.353.588 0-.059-.059-.059-.059-.117-.649.293-1.121.528-1.592.822-.413.235-.767.177-1.179 0v-.235c-.177-.94-.943-1.058-1.592-1.234-.118 0-.236.059-.354.118-.648.411-.766 1.351-.176 1.88.235.235.412.47.648.647.472.411.59.352 1.297-.235.059.058.118.058.236.117.53.353.766.823 1.297.882.471.059.766-.353 1.12-.529.412-.235.648.059 1.002.294 0 .058-.059.117 0 .176.295.823.884.764 1.415.705.177.059.354.059.53.118.59.059 1.003.117 1.415-.118.531-.294.944 0 1.533.235 0 .059-.059.118-.059.177.177.235.295.293.413.352 0 0 .059 0 .059-.117.118-.294.294-.529.353-.764.118-.059.177-.177.295-.235.531-.588.885-1.235 1.828-.706l-.059.059c.295.764.471.823.825.412.413-.177.825-.471.354-.882M42.8 196.411c.471-.118.707-.412.59-.764-.119-.529-.531-.412-1.003-.177-.118.764 0 1.058.413.941M82.653 122.654c.236.117.471.176.707 0 .295-.235.354-.471.118-.764-.118-.177-.412-.294-.353-.471-.177.236-.354.294-.472.471-.236.235-.354.529 0 .764M103.461 67.233c.177-.411-.059-.705-.354-.881-.236-.177-.53-.235-.943 0 0 .352.059.587.236.764.471.47.884.529 1.061.117M136.179 233.553c.176.353.471.353 1.061-.176.059-.47 0-.764-.295-.94a.44.44 0 0 0-.531 0c-.353.235-.412.705-.235 1.116M100.161 166.849c.236-.176.295-.588.059-.764-.295-.235-.649-.294-1.002-.059-.295.176-.354.47-.06.823.413.176.708.176 1.003 0M118.142 153.332c.354.352.707.411 1.061.294.295-.118.413-.529.236-.764-.236-.353-.59-.412-.943-.294-.354.058-.472.352-.354.764M193.719 180.778c-.177.058-.295.176-.412.352-.177.294 0 .705.412.882.413.235.59.059.826-.882-.236-.411-.472-.47-.826-.352M103.639 109.136c.177-.293.177-.528.059-.764-.177-.293-.413-.411-.766-.352-.295.059-.354.294-.413.529-.059.352.118.587.472.646a.85.85 0 0 0 .648-.059M144.906 125.886c.118-.235.177-.47 0-.705-.176-.294-.471-.353-.766-.235-.354.117-.472.294-.354.764.177.176.236.235.354.294.295.235.59.176.766-.118M145.964 110.371c.118.117.295.176.59.294.472-.059.766-.177.766-.588s-.353-.411-.648-.529a.38.38 0 0 0-.354 0c-.471.059-.648.47-.354.823M120.323 158.68c-.059 0-.177.059-.295.059-.53-.059-.884-.118-1.179.235-.236.352-.531.823-.354 1.175.295.529.59.999 1.179 1.352.767.411 1.415.235 2.064-.176.648-.412.589-.999.471-1.646-.059-.235-.176-.47-.353-.764l-.059-.059h.118c-.472-1.41-.531-1.41-1.474-.529.059.118-.059.177-.118.353M161.944 15.398c-.177-.294-.294-.47-.471-.588-.059-.059-.236 0-.295.059-.236.235-.236.705.059.94.354.353.589.118.707-.411M158.23 238.49c-.059.176 0 .353.118.647.354.176.59.176.766.058.295-.176.354-.47.236-.822-.059-.236-.236-.412-.53-.471-.354.059-.531.294-.59.588M177.034 161.56c-.295-.177-.531-.118-.708.058-.176.177-.294.412-.117.647.117.117.353.176.471.176.413-.176.59-.411.354-.881M193.719 237.256c.118.411.354.588.885.353.059-.236.118-.471.118-.588q-.088-.441-.531-.353c-.413 0-.589.235-.472.588M108.354 158.504c-.177.058-.236.235-.354.47.118.235.236.411.354.47.294.117.648.059.766-.294.059-.117 0-.353-.118-.47-.118-.294-.412-.294-.648-.176M152.158 185.127c.059-.294.118-.471.118-.647-.059-.353-.295-.529-.648-.47-.295.059-.59.176-.649.529-.059.411.295.47.59.529.235.059.471-.059.648.176-.059 0-.059-.059-.059-.117M176.563 196.41c-.177.471-.294.823.236.882.354.059.59-.235.59-.588 0-.352-.295-.587-.826-.294M82.77 98.205l-.06.06c.473.822.59.88 1.062.646.177-.06.295-.294.177-.47-.059-.177-.236-.294-.354-.353a.83.83 0 0 0-.825.117M175.56 132.233a.57.57 0 0 0 .531-.411c.059-.294-.118-.47-.354-.588-.472-.294-.825-.059-1.061.47.177.588.53.588.884.529M162.471 215.1c-.354.058-.589.47-.472.881.059.176.177.353.295.412q.443.264.884-.353c0-.647-.176-.999-.707-.94M135.121 128.531c.059-.353-.236-.647-.708-.647-.235 0-.471.118-.53.529q.177.53.53.529c.354.059.649-.059.708-.411M125.098 181.835c-.059.059-.059.118-.059.294.236.647.59.588 1.002.353.236-.118.295-.412.118-.647q-.53-.617-1.061 0M105.347 142.165c.117.294.353.588.707.471.354-.059.354-.412.354-.764 0-.294-.059-.647-.413-.706-.236-.058-.413.177-.648.47 0 .294-.059.412 0 .529M82.298 68.644c-.118-.235-.353-.353-.59-.294-.176.059-.353.176-.412.294-.118.352.118.529.53.646.413-.059.649-.235.472-.646M90.846 224.091c.059 0 .118-.059.236-.117.353-.529.118-.764-.295-.882-.354-.059-.59.118-.649.47-.059.47.354.529.708.529M155.103 208.694c-.118-.353-.413-.412-.766-.353-.472.117-.708.411-.354.999.295.118.471.176.648.176.472-.117.649-.47.472-.822M85.128 172.843c-.354-.058-.59-.058-.825 0-.236.118-.413.294-.354.588.059.235.295.411.53.47.531.059.708-.176.649-1.058M95.386 153.038a.564.564 0 0 0 .649.646c.177 0 .354-.117.472-.235.176-.293.058-.587-.295-.764-.472-.058-.767 0-.826.353M114.308 111.135c.177-.294.059-.647-.236-.764-.177-.118-.472 0-.825.058-.413.647.059.764.412.941.295.058.531 0 .649-.235M78.939 119.48c.235 0 .53-.059.59-.353.058-.235-.119-.47-.472-.587-.177-.059-.236-.059-.295-.059-.354 0-.649.117-.649.47 0 .411.354.411.649.47.059.059.118.059.177.059M8.313 125.886c.176-.117.118-.352 0-.47-.295-.294-.649-.294-1.12-.176-.118.235-.236.47-.177.529a.99.99 0 0 0 1.297.117M135.471 111.311c.177-.353.059-.588-.589-.882-.059 0-.118 0-.295.059-.413.529-.236.882.236 1.058.294.118.53.059.648-.235M95.443 133.702c.236-.117.295-.352.236-.646-.059-.353-.295-.529-.648-.47-.177 0-.295.176-.531.352 0 .294 0 .471.118.588.236.353.59.353.825.176M147.733 64.354c.059-.236-.059-.47-.295-.588-.294-.176-.589-.059-.766.352.118.236.177.47.295.53.353.176.648.058.766-.294M74.162 118.657c.236-.176.177-.411-.059-.705-.294-.176-.53-.235-.766-.117-.118.058-.177.176-.236.293-.059.294.118.471.354.588.295.059.53.118.707-.059M113.482 257.825c.236-.235.354-.529.118-.764-.295-.352-.648-.176-.884.118-.059.059-.118.176-.177.411.472.529.649.529.943.235M196.9 173.725c.117.353.412.47.707.412.354-.059.472-.353.413-.764-.177-.177-.354-.353-.531-.353-.413 0-.648.353-.589.705M190.417 181.542c-.177.293 0 .646.354.705.353.059.53-.176.53-.882-.471-.176-.707-.117-.884.177M193.66 188.712c-.059.176 0 .411.118.47.236.235.53.235.766 0 .059-.059.118-.176.177-.412-.118-.235-.236-.411-.354-.47-.353-.058-.648.118-.707.412M136.121 183.834c.059.352.354.47.707.411.472-.118.59-.411.472-.823-.059-.117-.118-.176-.295-.352-.177-.059-.236-.059-.295-.059-.53.117-.707.411-.589.823M110.181 211.985c-.354-.765-.472-.882-1.002-.706-.236.059-.472.235-.472.529s.236.412.472.412c.353 0 .648-.059 1.002-.235M193.423 128.589c-.059.529.177.823.825.706.413-.529.236-.882-.295-1.058-.235-.059-.471.059-.53.352M158.876 133.82c.471.118.707-.118.589-.705-.236-.294-.413-.47-.707-.412-.177 0-.354.059-.413.294-.059.412.177.705.531.823M180.158 163.381c-.767-.646-.943-.646-1.415-.235-.059.059-.118.235-.118.353.059.353.472.47 1.238.294.118-.059.177-.176.295-.412M133.821 196.587c.059 0 .059 0 .118.058.059-.235.118-.411.059-.646.059 0 .118-.059.236-.118.472-.47.236-.881.059-1.234-.177-.294-.472-.587-.884-.587-.531 0-.944.293-1.12.764-.177.411.058.705.589.822h.059c-.059 0-.059.059-.118.059.177.176.295.235.472.412h-.177c-.177.176-.295.235-.354.293-.177.294-.236.588 0 .823s.59.176.825 0c.177-.059.236-.294.236-.646M147.265 184.539c-.06 0 0 .06 0 0M147.204 184.539s0-.059.059-.118c.648-.646.648-.705-.059-1.351-.767.646-.767.646 0 1.469M126.276 72.758c.354-.177.236-.47.059-.882-.412-.235-.648-.294-.825.118-.118.293-.059.587.236.764.177.058.413.058.53 0M142.077 128.061c-.059.293.059.47.354.587.295.059.472-.117.648-.47.059-.47.059-.764-.412-.764-.354.059-.531.353-.59.647M152.098 178.662c.353.352.707.529.943.059.177-.294.059-.588-.295-.706-.471-.176-.648.118-.648.647M82.473 120.127c-.236.352.118.529.295.764.118.117.236.294.353.411l.06-.117c.117-.177.176-.177.176-.236.236-.352.295-.646-.118-.881-.235-.235-.53-.294-.766.059M108.297 194.295c.295.47.707.47 1.12.352.177-.058.354-.176.295-.352s-.177-.353-.295-.411c-.413-.177-.766 0-1.12.411M158.937 138.228c0-.176-.118-.353-.354-.353-.236-.059-.354.059-.413.235-.118.294.059.647.059.999a.45.45 0 0 0-.236.118c-.294-.059-.471-.059-.648-.059-.766 0-.825.059-.707.823.176.94.353 1.939-.177 2.938v.059l-.059-.059c-.059.529.118.823.53.823.059.059.118.177.236.235.354.235.59.353.943.588-.059 0-.059 0-.059.059.413 1.41.531 1.469 1.533.705.118-.059.236-.176.236-.353.059 0 .177-.058.236-.058.707-.294 1.356-.294 1.827-.764.59-.529 1.356-.588 2.24-.706 0 .059-.058.059-.058.118.471-.059.707-.235.53-.588.059-.059.118-.176.177-.235.236-.588.177-1.058-.118-1.645h.177c.118-.294.295-.353.472-.412.884-.117 1.296-.823 1.532-1.469.354-1.058-.589-2.175-1.945-1.881-.59.118-1.179.118-1.651.294-.354.999-.177 1.646.59 2.292.294.235 0 .47-.118.764-.059 0-.177 0-.295-.059-.825-.117-1.651 0-2.181-.587-.649-.647-1.415-.588-2.299-.647h-.059c.059 0 .059-.058.118-.058-.177-.529-.059-.823-.059-1.117M155.161 142.636c.295-.118.295-.353.236-.588-.118-.529-.413-.588-1.002 0 .117.294.176.47.294.529s.354.059.472.059M150.681 67.233c-.177.294-.059.588.354.764.354-.059.53-.294.53-.529.059-.235-.058-.47-.353-.588-.177-.058-.413.118-.531.353M82.83 207.812c-.177.176-.236.47-.06.646.296.294.65.353.944.059.06-.059.06-.117.118-.294-.236-.529-.59-.705-1.002-.411M82.121 141.225c0 .353.354.705.708.646.471-.058.589-.352.235-.822-.294-.118-.471-.118-.648-.118-.118 0-.295.118-.295.294M162.944 119.363c.353-.353.294-.647 0-.823-.295-.177-.59-.177-.767.117q-.266.53.354.706c.059.058.177.058.413 0M176.797 241.781c.471 0 .766.118 1.061.059.472-.117.531-.47.177-.881-.708-.059-.943.293-1.238.822M102.519 151.804c.118-.177.118-.353-.059-.47-.118-.118-.294-.235-.471-.235-.354-.059-.531.176-.708.587.826.47 1.002.47 1.238.118M35.193 89.684c.177-.236.118-.588-.177-.764-.294-.177-.59-.118-.766.352.118.235.177.412.354.53.177.175.412.117.59-.118M121.264 137.64c.354-.059.472-.294.354-.764-.295-.294-.472-.646-.825-.411-.295.176-.236.529-.118.823.118.235.294.411.589.352M40.911 99.968c.06-.058.118-.176.236-.411a.9.9 0 0 0-.413-.411c-.294-.06-.648 0-.707.352-.059.118 0 .412.118.47.177.235.472.235.766 0M12.853 130.411c.059.294.236.412.472.412.353.059.59-.118.707-.588-.177-.411-.472-.529-.766-.411-.236.176-.472.294-.413.587M141.369 107.138c-.295-.352-.648-.235-.884.118-.059.059-.059.117-.059.294.236.529.589.587.884.293.177-.235.236-.47.059-.705M125.331 136.171c.236-.059.354-.059.472-.118.295-.235.354-.529.118-.822-.236-.294-.648-.294-.943.058-.295.412-.236.706.353.882M43.388 112.663c.295-.294.177-.529-.06-.823-.176-.176-.412-.235-.648-.118-.353.177-.294.529-.117.823.117.176.235.294.471.353.118-.118.295-.118.354-.235M43.506 114.191c.177-.235 0-.47-.118-.647-.176-.176-.353-.352-.471-.529l-.06.118c-.176.235-.353.353-.412.529-.118.352.118.588.413.705.177 0 .471.059.648-.176M93.675 250.009c-1.002-.118-1.12 0-1.179.411 0 .177.059.353.295.412.59.117.884-.177.884-.823M152.806 190.651c-.295.411-.295.705.118.764.471.118.825-.118.766-.529 0-.411-.295-.47-.648-.411-.059 0-.118.058-.236.176M47.811 124.182c-.059-.353-.295-.471-.53-.529s-.531.058-.531.294c0 .117.059.352.177.47.295.352.648.294.884-.235M95.682 81.162c.353-.176.236-.47.059-.882-.354-.235-.649-.293-.826.06a.65.65 0 0 0 0 .47c.177.352.413.528.767.352M172.023 183.775c.118.353.471.47.766.353.354-.236.236-.529.118-.823 0-.059-.059-.118-.236-.177-.589-.117-.766.177-.648.647M170.609 110.723c-.118.235-.118.471.118.764.353.118.589 0 .707-.235.177-.235.059-.47-.177-.646-.177-.118-.471-.176-.648.117M140.896 145.28c.649.118.767-.235.59-.646-.118-.353-.649-.47-.943-.176-.236.293.059.528.353.822M136.18 221.741c0 .411.059.705.471.646.413-.059.649-.529.472-.764-.177-.294-.472-.235-.766-.118-.059 0-.118.059-.177.236M103.225 97.618c0-.236-.001-.47-.118-.588a.56.56 0 0 0-.59-.235c-.177.059-.236.235-.236.411 0 .235.118.47.413.53.118.117.295 0 .531-.118M124.861 81.28c-.472.234-.177.587.118.94.471.058.707-.06.648-.412-.059-.411-.471-.705-.766-.529M144.67 160.032c-.059.235 0 .47.236.646.353.177.589 0 .707-.294.059-.117.059-.235 0-.47-.118-.117-.177-.176-.236-.176-.295-.059-.589-.059-.707.294M92.319 74.697c.235-.176.117-.411-.118-.705-.295-.235-.53-.353-.708-.118a.553.553 0 0 0 .06.764c.176.235.53.235.766.059M109.651 152.156c.117.118.294.118.589.118.295-.294.236-.47.059-.705-.177-.177-.354-.353-.589-.177-.354.177-.236.529-.059.764M126.926 112.486c-.294-.705-.589-.881-.766-.587s-.177.587 0 .822c.295.294.531.177.766-.235M126.923 109.9c-.177-.058-.295.177-.236.412.118.235.295.353.708.47.177.059.235.118.294.059.177 0 .413 0 .472-.118.118-.176-.059-.352-.236-.411-.353-.176-.648-.353-1.002-.412M113.13 198.232c-.059.059-.118.235-.118.353 0 .294.177.47.471.411.118 0 .236-.058.413-.235 0-.294 0-.47-.118-.587-.177-.177-.413-.118-.648.058M133.468 106.844c-.589.177-.648.471-.353.823.235.235.53.294.766 0 .295-.294.118-.587-.413-.823M27.002 131.822c.117-.588-.118-.764-.59-.705-.236.058-.413.294-.354.529.177.529.53.529.944.176M168.604 140.226c-.471-.117-.648.118-.589.705.471.353.766.294.943-.117a.49.49 0 0 0-.354-.588M142.665 104.611c-.177.059-.295.235-.236.411 0 .294.177.471.472.412.118 0 .236-.059.413-.235 0-.294 0-.47-.118-.588-.177 0-.413-.059-.531 0M198.963 107.961q.708.53.884-.176c.059-.235-.059-.529-.294-.588-.531-.117-.649.176-.59.764M71.333 135.759c-.354.353-.177.647.353.823.53-.176.649-.47.295-.823a.464.464 0 0 0-.648 0M137.891 137.405c.413.411.766.235 1.061-.059.059-.059.059-.117.059-.235-.412-.411-.766-.588-1.179-.176-.118.117-.118.294.059.47M62.548 79.869c.294-.47.294-.764-.236-.882-.177-.058-.354.06-.413.236-.177.528.118.705.649.646M132.82 115.66c.236.47.531.646.885.294.118-.118.118-.353 0-.529-.354-.353-.649-.294-.885.235M17.392 123.124c-.177-.411-.413-.588-.707-.353-.118.059-.177.294-.177.47.059.294.354.294.884-.117M125.687 165.909c-.354-.235-.649-.353-.825 0-.118.235-.059.529.235.587.413.177.649 0 .59-.587M173.733 218.391c.059-.236.059-.353 0-.471-.118-.294-.354-.294-.649-.235-.117.059-.235.177-.235.235-.059.235 0 .529.294.588.177.118.354.059.59-.117M116.02 57.007c.236-.294.118-.646-.177-.705-.235-.059-.471 0-.589.294-.059.176.059.352.177.588.295-.06.471-.06.589-.177M155.222 200.231c.118-.118.118-.294.177-.529h.177c.412-.177.707-.294.943-.412.295-.176.413-.47.236-.764-.177-.352-.649-.411-.943-.117-.295.294-.59.588-.826.999-.059 0-.118-.059-.177-.059-.235.118-.353.176-.412.294-.236.294-.236.588.059.823.235.117.53 0 .766-.235M116.315 149.218c.177-.235.118-.47-.118-.705-.295 0-.531 0-.648.117-.177.177-.236.47-.059.647.294.176.589.176.825-.059M169.959 132.468c.177-.235.118-.47-.117-.705-.295 0-.531 0-.649.118-.177.176-.236.47-.059.646.295.235.59.235.825-.059M180.452 118.422c.176-.235.118-.47-.118-.705-.295 0-.531 0-.649.118-.177.176-.236.47-.059.646.236.235.59.176.826-.059M161.057 66c.177-.236.118-.471-.118-.706-.295 0-.53 0-.648.118-.177.176-.236.47-.059.646.295.235.589.235.825-.059M181.398 156.329c.353.294.648.235.825-.294-.177-.529-.531-.587-.825-.294-.177.177-.236.412 0 .588M165.422 167.319c-.295-.117-.649.059-.649.353-.059.411.236.47.708.411.235-.294.294-.588-.059-.764M147.854 35.086a.53.53 0 0 0-.236-.47c-.235-.118-.471-.059-.648.235-.059.117-.059.235 0 .47.177.176.295.235.413.235.294 0 .471-.176.471-.47M138.245 225.502c-.177.059-.295.235-.413.47.118.353.295.529.59.47.235-.059.412-.294.353-.529-.059-.352-.236-.529-.53-.411M192.716 172.256c.059.353.295.529.59.47.353-.059.471-.294.412-.646-.059-.118-.236-.235-.471-.353-.354.118-.59.235-.531.529M56.593 131.117c-.353-.059-.59.117-.59.47 0 .352.237.529.59.47.118 0 .236-.235.354-.47-.118-.235-.236-.412-.354-.47M175.444 149.982c-.118.47.117.646.707.588.472-.471.295-.764-.118-.882-.295-.059-.531.059-.589.294M136.771 53.716c.472-.117.472-.47.118-.94-.589-.118-.825.117-.707.587.118.294.354.412.589.353M126.925 193.06c-.118.236-.059.471.118.647.176.176.412.176.648 0 .059-.059.118-.176.236-.411-.118-.236-.236-.412-.354-.471-.295-.058-.53 0-.648.235M101.986 216.393c-.118-.236-.236-.471-.354-.471-.353-.058-.589.059-.589.471 0 .352.236.529.589.47.118-.059.236-.235.354-.47M107.235 173.725c.059.118.177.177.236.235.235.059.53 0 .589-.294.059-.176-.059-.352-.177-.587-.236-.059-.354-.059-.471 0-.236.176-.295.411-.177.646M33.427 201.288c.176.177.471.235.648 0 .118-.117.118-.293.118-.587-.177-.118-.295-.177-.413-.177-.294 0-.471.118-.471.412 0 .117.059.294.117.352M109.886 139.815c.412.352.766.294.884-.177.059-.235-.059-.47-.354-.529-.412-.117-.648.118-.53.706M197.078 87.156c-.059.412.236.53.707.412.295-.353.354-.647 0-.823-.353-.118-.707.059-.707.411M98.096 155.271c-.059-.058-.118-.058-.177-.058-.412 0-.707-.059-1.06 0-.237 0-.472.058-.708.117-.354.118-.53.529-.472.882.118.352.413.411.766.352.649-.059 1.239-.411 1.77-.94.058.059.058.117.117.176.53.177.825.118.884-.352.06-.353-.294-.588-.766-.529-.177 0-.295.176-.354.352M106.175 177.369c-.118-.235-.354-.353-.589-.235-.354.176-.354.47 0 .823.471.058.766-.118.589-.588M181.043 234.905c-.059.294.118.47.353.529.118.059.236 0 .354-.059.236-.176.295-.411.118-.646-.059-.118-.177-.177-.413-.235-.177.176-.353.294-.412.411M137.006 224.796c.235-.293.294-.528.117-.705-.235-.294-.589-.235-.707.118-.118.352-.059.646.59.587M92.203 193.237c-.354.352-.295.646.058.764.236.059.531 0 .59-.294.118-.353-.236-.47-.648-.47M87.014 160.854c.177 0 .354 0 .59-.117.058-.47-.118-.647-.472-.647-.236 0-.472.118-.472.412q0 .352.354.352M103.935 143.694c.118.117.354.176.471 0 .295-.294.177-.529-.235-.706-.413.177-.472.412-.236.706M107.469 168.377c.531.529.944.882 1.533.411l-.118-.058-1.002-1-.059.059-.471.47zM134.115 207.695c-.177.058-.295.176-.295.411.059.353.354.411.649.411.059 0 .118-.058.236-.176.118-.588-.118-.764-.59-.646M109.888 94.679c.236.118.413.176.589.176a.44.44 0 0 0 .295-.411c0-.176-.177-.353-.353-.353-.354 0-.59.118-.531.588M70.802 108.314c.059-.412-.295-.412-.707-.412-.413.471-.236.706.235.764.236.059.472-.117.472-.352M69.798 59.064c-.177-.117-.353-.117-.471.06-.118.175-.118.352 0 .47s.294.234.53.293c.472-.294.295-.588-.059-.823M183.637 23.097c.059.294.294.411.589.294.295-.06.295-.353.236-.588-.059-.294-.295-.353-.648-.294-.118.235-.177.411-.177.588M136.829 94.973c.177.118.295.176.413.176.295 0 .472-.176.472-.47-.059-.294-.295-.411-.531-.353-.354.06-.472.236-.354.647M99.396 83.983c.412-.177.59-.412.353-.706a.464.464 0 0 0-.648 0c-.354.353-.177.588.295.706M117.432 127.12c-.059-.352-.354-.47-.708-.352-.413.117-.295.411 0 .764.472.058.766 0 .708-.412M155.162 9.697c-.118-.117-.353-.176-.471 0-.354.353-.177.647.294.94.413-.293.472-.646.177-.94M33.13 153.273c.294-.294.294-.529 0-.646-.236-.118-.472.058-.531.293-.06.353.177.412.53.353M87.132 145.692c.412-.235.766-.47.294-.823-.294-.176-.589 0-.707.294s0 .47.413.529M117.551 207.812a.46.46 0 0 0 0 .646c.294.294.53.118.707-.294q-.266-.705-.707-.352M84.42 159.562c0-.294-.353-.471-.707-.353-.413.117-.354.411-.06.764.472.059.767-.059.767-.411M99.158 145.927c.354.176.707 0 .707-.294s-.176-.47-.471-.47c-.118 0-.236.059-.413.176-.118.353 0 .529.177.588M108.707 83.043c-.118-.118-.354-.118-.531 0-.294.293-.236.528.236.705.531-.118.59-.412.295-.706M189.531 176.546c.059.294.354.353.589.294.413-.118.413-.412.118-.764-.471-.118-.766.059-.707.47M149.267 185.479c.413.059.708-.059.708-.411a.32.32 0 0 0-.177-.294c-.236-.118-.472-.118-.649.059-.235.117-.176.352.118.646M142.37 176.429c.295-.47 0-.647-.589-.647-.354.353-.236.647.059.823.176.118.412 0 .53-.176M170.904 199.525c.295-.411.295-.764-.177-.881-.177-.059-.354.058-.413.235-.117.47-.058.764.59.646M120.085 197.645c0-.235-.236-.412-.472-.353-.413.059-.59.353-.236.764.472 0 .767 0 .708-.411M190.887 73.933c0-.235-.118-.47-.412-.411a.47.47 0 0 0-.295.705c.059.118.295.176.53.176.118-.235.177-.352.177-.47M125.979 123.359c-.176-.47-.412-.529-.707-.235-.118.117-.118.411 0 .529.295.294.531.117.707-.294M199.731 220.918c-.236-.059-.472.059-.531.294-.059.411.177.47.649.411.236-.353.236-.588-.118-.705M185.464 111.605c-.059.294.118.529.413.47.295 0 .472-.176.413-.47-.059-.176-.177-.294-.413-.411-.236.117-.413.235-.413.411M67.56 144.986c.236-.176.236-.411.118-.646-.118-.176-.295-.235-.472-.176-.236.117-.294.352-.236.587 0 .059.06.118.177.235.177.059.295.059.413 0M116.668 132.88c.177-.177.236-.294.236-.353q-.089-.44-.531-.353c-.177 0-.354.177-.412.294-.059.294.117.412.412.529.059-.059.118-.059.295-.117M118.316 181.013c0 .117.059.235.236.411.295.118.472.059.531-.117.177-.353 0-.706-.295-.706-.295-.058-.413.177-.472.412M110.653 165.556c.118-.176.295-.411 0-.588-.236-.117-.471 0-.589.177-.295.293-.295.646.118.881.176-.235.353-.353.471-.47M164.715 221.447c0 .176.177.294.413.411a.9.9 0 0 0 .412-.411c.059-.235-.059-.47-.412-.47-.236 0-.413.235-.413.47M.825 148.689c.118-.529-.059-.764-.471-.823-.236 0-.354.118-.354.294.059.47.295.647.825.529M173.675 182.364c.059.235.177.412.59.353.118-.235.177-.411.118-.588a.44.44 0 0 0-.413-.294c-.236.059-.354.236-.295.529M144.669 208.4c-.531-.529-.708-.529-.826-.177-.059.235-.059.529.236.647s.472-.059.59-.47M117.197 174.665c.059.353.294.471.648.412q.089 0 .177-.176c.059-.471 0-.706-.413-.706-.235 0-.471.177-.412.47M163.474 116.835c-.059.177-.118.353-.059.412.118.235.354.352.59.117.235-.235.117-.47-.118-.587-.059 0-.236 0-.413.058M153.277 75.461c-.118-.235-.413-.235-.708 0q-.088.617.354.529c.295-.059.472-.294.354-.529M98.98 143.87c.06-.118 0-.353-.059-.47-.176-.177-.412-.177-.589.117.059.176.118.294.236.353.118.176.353.235.413 0M153.101 140.931q-.53.266 0 .705c.354-.117.531-.293.413-.528-.059-.177-.295-.236-.413-.177M7.015 168.553c-.059-.176-.295-.294-.471-.176-.354.176-.354.47.058.764.413-.118.531-.294.413-.588M133.349 83.043c.177.176.354.352.59.117a.36.36 0 0 0 0-.47c-.059-.118-.177-.176-.413-.235-.294.117-.353.353-.177.588M127.985 148.219l-.177.176c-.177.235-.294.353-.471.588v-.059c-.295.235-.531.412-.354.705l-.177.177c-.825 1.586-.177 2.644.943 3.702h-.118c.767.705 1.71.764 2.535.941.059.058.059.117.059.176.177.176.295.235.413.411v.059h-.118c.059.353.059.646.236.823v.176c.059 0 0 0 0 .118v.058c-.059 0-.059-.058-.118-.058.059.587.413.822.707 1.175.236.294.236.47.059.823-.412.764-.412.823.472.94v.059c.059.059.059.059.236.176.825.47 1.238-.059 1.886-.47v.118c.413-.118.649-.294.413-.588.059-.118.059-.176.118-.294 0-.47-.118-.764-.472-1.058v-.059h.059c.059-.411.118-.646.413-.587.825.176 1.769-.059 2.594.352.413.177.53-.117.648-.411 0-.118.059-.235.059-.353.059-.529-.059-.999-.471-1.351-.413-.353-.767-.059-1.179.058-.767.235-1.003.177-1.592-.47 0-.117.059-.235.059-.352.354-.353.707-.529.884-1.058l.059.059c.354-.294.59-.471.766-.706.177-.176.649-.176.413-.764-.472.294-.884.647-1.415.705a1.3 1.3 0 0 0-.295-.176c-.412-1.058-.53-2.116-1.12-3.056.472-.294.885-.529 1.238-.764.236-.176.177-.47 0-.646-.176-.294-.648-.412-.825-.177-.295.353-.531.706-.825 1.117-.059 0-.118-.059-.177-.059-.236-.294-.295-.529-.236-.881l.059.058c.177-.352.236-.646-.118-.705-.059-.059-.059-.176-.118-.235-.412-.411-.884-.529-1.474-.588-.059 0-.059.059-.118.059l.118-.117c-.766.352-1.532.705-2.063 1.175-.118.059-.295.176-.413.235-.235.118-.353.235-.589.353v-.059c-.059.117-.413.235-.413.529m4.422 8.933c.059 0 .059-.059.118-.059-.059.059-.059.059-.118.059M142.665 117.129c-.059.118 0 .294.059.353.236.235.531.235.766 0 .059-.059.059-.118.059-.294-.059-.176-.118-.235-.177-.235-.294-.235-.589-.118-.707.176M120.084 110.723c-.118.353-.059.588.236.588q.354 0 .354-.353c0-.235-.236-.352-.59-.235M192.715 133.291c-.236.118-.354.353-.118.529.177.176.413.118.531-.117.059-.059.059-.236 0-.412-.177-.059-.354-.059-.413 0M117.549 101.496c-.118.235.059.471.295.529q.442.089.354-.529c-.236-.176-.531-.235-.649 0M108.059 166.144c-.059 0-.177-.059-.236-.059-.884.588-.884.705-.295 1.234.118.118.295.235.472.235.235-.293.471-.47.648-.764.059 0 .059.059.118.059.236-.235.354-.353.413-.529-.413-.411-.767-.529-1.12-.176M114.663 159.503q-.088.616.354.529c.236-.059.413-.353.295-.588-.118-.294-.354-.235-.649.059M160.644 218.449c-.118-.235-.354-.235-.649.059q-.089.618.354.529c.295-.117.413-.353.295-.588M27.824 180.366c.118-.117.118-.294 0-.47-.06-.118-.177-.176-.413-.235-.413.235-.413.529-.059.705.177.176.354.176.472 0M126.396 160.384a.31.31 0 0 0 .471.059c.236-.176.295-.411-.118-.588q-.53.089-.353.529M174.91 198.879c.177.235.413.235.649-.118-.118-.352-.295-.529-.59-.352-.177.117-.177.294-.059.47M129.047 75.872c.118.353.295.53.589.353a.31.31 0 0 0 .059-.47c-.177-.235-.412-.235-.648.117M40.618 91.153c.06-.294-.059-.412-.471-.412-.236.294-.236.53.059.588.176.118.412.059.412-.176M142.604 144.281c.354.059.59-.059.531-.353a.422.422 0 0 0-.59-.293c-.294.117-.235.411.059.646M104.995 182.188c-.236-.117-.472.059-.531.294-.059.294.118.411.472.352.295-.293.295-.528.059-.646M91.73 181.424c.058-.176.117-.352.058-.411-.117-.235-.353-.353-.59-.118-.235.235-.117.47.119.588.118.059.236 0 .412-.059M142.605 157.563c.059.235.295.412.531.294.295-.117.177-.353.059-.588 0-.058-.059-.058-.118-.176h.177c.236-.059.354-.117.472-.176.294-.118.53-.353.353-.705-.118-.294-.589-.353-.943-.177-.295.177-.354.47-.295.823h-.059c-.118.353-.177.529-.177.705M137.83 63.766c-.118.235 0 .47.295.529q.442.088.354-.53c-.295-.234-.531-.293-.649 0M134.352 203.404c.117.353.294.529.589.353.177-.118.177-.294.059-.47-.236-.235-.472-.235-.648.117M104.285 75.931c.295.353.531.412.708.06.059-.177 0-.353-.177-.412-.236-.118-.472 0-.531.352M204.152 165.967q-.088.441.53.353c.236-.294.236-.529 0-.646-.236-.118-.471.058-.53.293M155.929 114.132q-.089.44.531.352c.235-.293.294-.528.059-.646a.407.407 0 0 0-.59.294M161.118.529c.118-.235-.059-.47-.295-.529-.118 0-.295.118-.471.294.117.235.235.411.353.411.118.059.354-.059.413-.176M182.339 177.075c-.118.176-.059.411.118.47.235.118.471-.059.589-.411-.236-.412-.53-.412-.707-.059M132.702 101.732c.295-.118.236-.353.059-.588-.059-.059-.118-.059-.294-.118-.177.118-.295.235-.295.294.059.294.236.529.53.412M111.952 65.647c.236-.118.236-.353-.059-.647q-.618-.088-.53.353c.118.235.353.411.589.294M131.698 63.237c.236-.294.295-.529 0-.647-.236-.117-.531 0-.531.294-.059.235.118.412.531.353M109.887 166.144c-.295.117-.472.235-.649.294 0 0 .059 0 .059.058.236.294.413.47.649.353.353-.176.294-.47.059-.764 0 .059 0 0-.118.059M161.766 217.333c-.059-.177-.236-.235-.413-.177-.118.059-.177.177-.236.353.118.235.295.294.472.235.118-.059.236-.235.177-.411M163.002 149.042q.089-.265-.354-.353c-.354.176-.354.411-.059.529.177.059.354 0 .413-.176M145.141 172.021c.176.764.176.822.648.587.118 0 .236.059.354.059.825 0 1.415.294 2.063.588.943-.235 1.533-.647 1.592-1.646h-.059.177c-.295-.764-.708-1.351-.413-2.174.118-.353 0-.882-.059-1.293 0-.177-.177-.412-.295-.47-.648-.177-1.238-.588-1.827-.882-.472-.176-.884 0-1.179.294s-.472.588-.295.999c.177.47.413.94 1.061.882.177 0 .354-.059.531-.059.295.059.648.176.707.47.118.353-.177.588-.471.705-.354.177-.767.294-1.121.529-.058-.059-.117-.059-.176-.117-.059 0-.118.058-.295.117 0-.059.059-.059.059-.117-.472.176-.767.352-.649.646a1.3 1.3 0 0 0-.177.294c-.117.176-.176.235-.176.529.059.117 0 .117 0 .059"/><path d="M164.007 202.111h-.118c-.177-.117-.295-.235-.413-.235-.059-.058-.059-.117-.118-.235-.118-.117-.177-.117-.353-.176h-.059c.059 0 .059-.059.118-.059-.413-.117-.767-.353-1.062-.117h-.353c-1.061.176-1.592.822-2.064 1.704v-.059c-.353.235-.471.47-.118.647 0 .058 0 .117.059.235.118.235.236.294.354.529v.058l-.059-.058c.059.411.059.764.354.881q.354.177.53.529c.059.118.059.294.059.412-.059.293-.059.528-.059.881-.058 0-.058 0-.117-.059-.177.412 0 .706.294.823.295.176.59.059.826-.117.294-.236.53-.471.825-.706.413-.352.59-.822.295-1.234.059-.117.059-.235.118-.294a2.8 2.8 0 0 1 .471-1.293c.236-.411.413-.881.413-1.469v.059c.059-.353.118-.47.177-.647M135.53 117.306c-.295-.118-.413 0-.413.176 0 .059.118.235.236.235.236.059.295-.118.177-.411M138.598 113.544c0 .059.118.235.235.235.236 0 .295-.117.236-.411-.294-.118-.471-.059-.471.176M159.111 98.382c-.236.117-.295.293-.177.411.059.059.236.059.295 0 .177-.118.177-.294-.118-.411M132.76 124.711c-.177-.294-.354-.47-.59-.235-.117.176-.117.293 0 .47.236.235.413.059.59-.235M174.144 209.81c-.176.118-.176.294 0 .412.177.117.295.058.413-.177-.118-.294-.236-.352-.413-.235M200.969 212.572c.295.118.413 0 .413-.176 0-.059-.118-.235-.236-.235-.177 0-.295.117-.177.411M129.872 39.376c-.177-.352-.354-.47-.59-.294-.235.176-.235.412 0 .588.236.176.413.059.59-.294M180.455 189.417c.118.176.295.176.413 0 .117-.177.058-.294-.177-.412-.236.059-.295.235-.236.412M146.32 162.97c.118 0 .177 0 .295-.059-.059 0-.118-.058-.177-.058zM150.623 157.916c.118 0 .236-.118.236-.176.059-.235-.118-.412-.354-.47h-.177l-.058.117c0 .353.058.588.353.529M151.628 156.329c.294-.117.353-.235.235-.411a.275.275 0 0 0-.471 0c-.177.117-.059.294.236.411M157.875 149.453a.45.45 0 0 0-.117.235c-.059.235-.118.353-.177.588h-.118c-.767-.235-1.12.235-1.592.47h.118c.884.529.943.529 1.651-.176.059.058.118.058.177.117.471.588.825 1.058 1.65.94 0 0 .059 0 .059-.058 0 .058-.059.058-.059.117.767-.117.826-.176.708-.587.059-.059.118-.177.176-.236.295-.235.472-.47.295-.705a17 17 0 0 0-1.002-1.058c-.354-.352-.766-.293-1.356-.058 0-.059.059-.059.059-.118-.413 0-.648.176-.472.529M168.368 129.471c-.059-.059-.177-.059-.295-.118-.236-.058-.354-.117-.472-.117-1.768-.294-1.945-.176-1.709 1.587 0 .117-.059.294 0 .352.059.177.177.353.353.412.708.294 1.356.646 2.241.235h.059l-.059.059c.235.293.294.529.412.764s.354.352.59.293a.64.64 0 0 0 .472-.47c.117-.294.117-.587-.118-.881-.177-.294-.413-.529-.649-.764-.059-.118-.059-.235-.177-.353-.118-.235-.177-.353-.353-.588h.059c.117-.47-.118-.529-.354-.411M126.57 167.966c.177.294.354.294.531.117v-.176c-.177-.235-.354-.235-.531.059M138.89 145.457c.177.117.295.176.413.117.177 0 .295-.117.236-.352 0-.059-.177-.118-.295-.118a.96.96 0 0 0-.413.235c0 .059-.059.059.059.118M183.047 97.147c-.059.118 0 .353.117.47.236.236.413.06.59-.293-.236-.412-.472-.53-.707-.177M114.896 164.851c.354-.176.472-.353.177-.529-.059-.059-.235-.059-.294 0-.295.117-.236.294.117.529M192.776 154.331c.118.176.294.176.412 0s.059-.294-.177-.412c-.294.118-.353.294-.235.412M206.451 133.996c-.235.177-.235.353.059.529.295-.176.295-.352.059-.529zM173.378 162.618c.236-.412-.118-.588-.53-.647 0-.059 0-.117-.059-.176-.236-.176-.413-.294-.59-.294 0-.059 0-.176-.059-.235-.943-.647-1.297-.647-2.004-.059-.472.412-.472.999.059 1.411.235.235.589.235 1.061.117 0 .059-.059.059-.059.118.589.117.884-.235 1.356-.47 0 .058 0 .117-.059.176.412.352.707.352.884.059M166.895 159.561c0-.058-.059-.058-.059-.117v.529c0-.118 0-.177.059-.235zM181.692 87.45h.177c.235-.176.235-.352-.059-.529-.354.177-.354.353-.118.53M178.095 154.801c.059.059.236 0 .295-.059.118-.176 0-.293-.236-.411-.177.235-.236.411-.059.47M159.349 152.569l-.06-.06zM128.93 140.991s.06-.06 0 0v-.06z"/></g><defs><clipPath id="a"><path fill="#fff" d="M0 0h269v260H0z"/></clipPath></defs></svg>
