<svg width="24" height="24" viewBox="0 0 24 24" fill="none" xmlns="http://www.w3.org/2000/svg">
<mask id="path-1-inside-1_2640_55" fill="white">
<path d="M5.64014 11.42H15.4101C15.5427 11.42 15.6699 11.3673 15.7637 11.2736C15.8575 11.1798 15.9101 11.0526 15.9101 10.92C15.9101 10.7874 15.8575 10.6602 15.7637 10.5664C15.6699 10.4727 15.5427 10.42 15.4101 10.42H5.64014C5.50753 10.42 5.38035 10.4727 5.28658 10.5664C5.19282 10.6602 5.14014 10.7874 5.14014 10.92C5.14014 11.0526 5.19282 11.1798 5.28658 11.2736C5.38035 11.3673 5.50753 11.42 5.64014 11.42ZM15.4101 13.91H5.64014C5.50753 13.91 5.38035 13.9627 5.28658 14.0564C5.19282 14.1502 5.14014 14.2774 5.14014 14.41C5.14014 14.5426 5.19282 14.6698 5.28658 14.7636C5.38035 14.8573 5.50753 14.91 5.64014 14.91H15.4101C15.5427 14.91 15.6699 14.8573 15.7637 14.7636C15.8575 14.6698 15.9101 14.5426 15.9101 14.41C15.9101 14.2774 15.8575 14.1502 15.7637 14.0564C15.6699 13.9627 15.5427 13.91 15.4101 13.91ZM15.4101 17.4H5.64014C5.50753 17.4 5.38035 17.4527 5.28658 17.5464C5.19282 17.6402 5.14014 17.7674 5.14014 17.9C5.14014 18.0326 5.19282 18.1598 5.28658 18.2536C5.38035 18.3473 5.50753 18.4 5.64014 18.4H15.4101C15.5427 18.4 15.6699 18.3473 15.7637 18.2536C15.8575 18.1598 15.9101 18.0326 15.9101 17.9C15.9101 17.7674 15.8575 17.6402 15.7637 17.5464C15.6699 17.4527 15.5427 17.4 15.4101 17.4Z"/>
</mask>
<path d="M5.64014 11.42H15.4101C15.5427 11.42 15.6699 11.3673 15.7637 11.2736C15.8575 11.1798 15.9101 11.0526 15.9101 10.92C15.9101 10.7874 15.8575 10.6602 15.7637 10.5664C15.6699 10.4727 15.5427 10.42 15.4101 10.42H5.64014C5.50753 10.42 5.38035 10.4727 5.28658 10.5664C5.19282 10.6602 5.14014 10.7874 5.14014 10.92C5.14014 11.0526 5.19282 11.1798 5.28658 11.2736C5.38035 11.3673 5.50753 11.42 5.64014 11.42ZM15.4101 13.91H5.64014C5.50753 13.91 5.38035 13.9627 5.28658 14.0564C5.19282 14.1502 5.14014 14.2774 5.14014 14.41C5.14014 14.5426 5.19282 14.6698 5.28658 14.7636C5.38035 14.8573 5.50753 14.91 5.64014 14.91H15.4101C15.5427 14.91 15.6699 14.8573 15.7637 14.7636C15.8575 14.6698 15.9101 14.5426 15.9101 14.41C15.9101 14.2774 15.8575 14.1502 15.7637 14.0564C15.6699 13.9627 15.5427 13.91 15.4101 13.91ZM15.4101 17.4H5.64014C5.50753 17.4 5.38035 17.4527 5.28658 17.5464C5.19282 17.6402 5.14014 17.7674 5.14014 17.9C5.14014 18.0326 5.19282 18.1598 5.28658 18.2536C5.38035 18.3473 5.50753 18.4 5.64014 18.4H15.4101C15.5427 18.4 15.6699 18.3473 15.7637 18.2536C15.8575 18.1598 15.9101 18.0326 15.9101 17.9C15.9101 17.7674 15.8575 17.6402 15.7637 17.5464C15.6699 17.4527 15.5427 17.4 15.4101 17.4Z" fill="#383641"/>
<path d="M5.64014 12.42H15.4101V10.42H5.64014V12.42ZM15.4101 12.42C15.808 12.42 16.1895 12.262 16.4708 11.9807L15.0566 10.5664C15.1504 10.4727 15.2775 10.42 15.4101 10.42V12.42ZM16.4708 11.9807C16.7521 11.6994 16.9101 11.3178 16.9101 10.92H14.9101C14.9101 10.7874 14.9628 10.6602 15.0566 10.5664L16.4708 11.9807ZM16.9101 10.92C16.9101 10.5222 16.7521 10.1406 16.4708 9.85934L15.0566 11.2736C14.9628 11.1798 14.9101 11.0526 14.9101 10.92H16.9101ZM16.4708 9.85934C16.1895 9.57803 15.808 9.42 15.4101 9.42V11.42C15.2775 11.42 15.1504 11.3673 15.0566 11.2736L16.4708 9.85934ZM15.4101 9.42H5.64014V11.42H15.4101V9.42ZM5.64014 9.42C5.24231 9.42 4.86078 9.57803 4.57948 9.85934L5.99369 11.2736C5.89992 11.3673 5.77274 11.42 5.64014 11.42V9.42ZM4.57948 9.85934C4.29817 10.1406 4.14014 10.5222 4.14014 10.92H6.14014C6.14014 11.0526 6.08746 11.1798 5.99369 11.2736L4.57948 9.85934ZM4.14014 10.92C4.14014 11.3178 4.29817 11.6994 4.57948 11.9807L5.99369 10.5664C6.08746 10.6602 6.14014 10.7874 6.14014 10.92H4.14014ZM4.57948 11.9807C4.86078 12.262 5.24231 12.42 5.64014 12.42V10.42C5.77274 10.42 5.89992 10.4727 5.99369 10.5664L4.57948 11.9807ZM15.4101 12.91H5.64014V14.91H15.4101V12.91ZM5.64014 12.91C5.24231 12.91 4.86078 13.068 4.57948 13.3493L5.99369 14.7636C5.89992 14.8573 5.77275 14.91 5.64014 14.91V12.91ZM4.57948 13.3493C4.29817 13.6306 4.14014 14.0122 4.14014 14.41H6.14014C6.14014 14.5426 6.08746 14.6698 5.99369 14.7636L4.57948 13.3493ZM4.14014 14.41C4.14014 14.8078 4.29817 15.1894 4.57948 15.4707L5.99369 14.0564C6.08746 14.1502 6.14014 14.2774 6.14014 14.41H4.14014ZM4.57948 15.4707C4.86078 15.752 5.24231 15.91 5.64014 15.91V13.91C5.77274 13.91 5.89992 13.9627 5.99369 14.0564L4.57948 15.4707ZM5.64014 15.91H15.4101V13.91H5.64014V15.91ZM15.4101 15.91C15.808 15.91 16.1895 15.752 16.4708 15.4707L15.0566 14.0564C15.1504 13.9627 15.2775 13.91 15.4101 13.91V15.91ZM16.4708 15.4707C16.7521 15.1894 16.9101 14.8078 16.9101 14.41H14.9101C14.9101 14.2774 14.9628 14.1502 15.0566 14.0564L16.4708 15.4707ZM16.9101 14.41C16.9101 14.0122 16.7521 13.6306 16.4708 13.3493L15.0566 14.7636C14.9628 14.6698 14.9101 14.5426 14.9101 14.41H16.9101ZM16.4708 13.3493C16.1895 13.068 15.808 12.91 15.4101 12.91V14.91C15.2775 14.91 15.1504 14.8573 15.0566 14.7636L16.4708 13.3493ZM15.4101 16.4H5.64014V18.4H15.4101V16.4ZM5.64014 16.4C5.24231 16.4 4.86078 16.558 4.57948 16.8393L5.99369 18.2536C5.89992 18.3473 5.77274 18.4 5.64014 18.4V16.4ZM4.57948 16.8393C4.29817 17.1206 4.14014 17.5022 4.14014 17.9H6.14014C6.14014 18.0326 6.08746 18.1598 5.99369 18.2536L4.57948 16.8393ZM4.14014 17.9C4.14014 18.2978 4.29817 18.6794 4.57948 18.9607L5.99369 17.5464C6.08746 17.6402 6.14014 17.7674 6.14014 17.9H4.14014ZM4.57948 18.9607C4.86078 19.242 5.24231 19.4 5.64014 19.4V17.4C5.77274 17.4 5.89992 17.4527 5.99369 17.5464L4.57948 18.9607ZM5.64014 19.4H15.4101V17.4H5.64014V19.4ZM15.4101 19.4C15.808 19.4 16.1895 19.242 16.4708 18.9607L15.0566 17.5464C15.1504 17.4527 15.2775 17.4 15.4101 17.4V19.4ZM16.4708 18.9607C16.7521 18.6794 16.9101 18.2978 16.9101 17.9H14.9101C14.9101 17.7674 14.9628 17.6402 15.0566 17.5464L16.4708 18.9607ZM16.9101 17.9C16.9101 17.5022 16.7521 17.1206 16.4708 16.8393L15.0566 18.2536C14.9628 18.1598 14.9101 18.0326 14.9101 17.9H16.9101ZM16.4708 16.8393C16.1895 16.558 15.808 16.4 15.4101 16.4V18.4C15.2775 18.4 15.1504 18.3473 15.0566 18.2536L16.4708 16.8393Z" fill="white" mask="url(#path-1-inside-1_2640_55)"/>
<path d="M5.02637 1.87207C4.15548 1.94913 3.34613 2.35483 2.76367 3.00684C2.18393 3.65585 1.87252 4.50036 1.89062 5.37012H1.88965V19.9971C1.88607 20.5476 2.09857 21.078 2.48047 21.4746C2.86244 21.8711 3.38425 22.103 3.93457 22.1201H16.5566C17.1146 22.1132 17.6477 21.887 18.041 21.4912C18.4343 21.0953 18.6568 20.561 18.6602 20.0029V7.2002H8.82324C8.79674 7.20057 8.76971 7.19543 8.74512 7.18555C8.72069 7.17568 8.69845 7.16106 8.67969 7.14258C8.66081 7.12397 8.64597 7.1016 8.63574 7.07715C8.62552 7.0527 8.62011 7.02649 8.62012 7V5.25C8.62276 4.80708 8.5378 4.36799 8.37012 3.95801C8.20197 3.54701 7.95404 3.17299 7.64062 2.8584C7.32706 2.54374 6.95352 2.29463 6.54297 2.125C6.13295 1.9556 5.69362 1.86878 5.25 1.87012H5.04785L5.02637 1.87207ZM1.5 5.36719C1.49445 4.39492 1.85627 3.4565 2.5127 2.73926C3.16496 2.02665 4.06057 1.58443 5.02246 1.5H18.7373L18.9238 1.50586C19.8507 1.55584 20.7294 1.945 21.3896 2.60352C22.0499 3.26224 22.442 4.14052 22.4941 5.06738L22.5 5.25391V6.9668C22.4947 7.01473 22.4739 7.05985 22.4395 7.09375L22.4326 7.09961L22.4268 7.10645C22.4105 7.12367 22.39 7.13731 22.3682 7.14648C22.3465 7.15555 22.3233 7.16057 22.2998 7.16016H19.0498V20.0195C19.0498 20.6826 18.7862 21.3192 18.3174 21.7881C17.8486 22.2567 17.2127 22.5195 16.5498 22.5195H4.72168C4.26398 22.5185 3.80644 22.4883 3.35254 22.4297L3.24805 22.3955L3.24316 22.3945L3.0166 22.3086C2.49821 22.084 2.06863 21.6889 1.80176 21.1855L1.79883 21.1807L1.72949 21.043C1.57752 20.7177 1.49877 20.3623 1.5 20.002V5.36719ZM22.1104 5.24805C22.1072 4.3558 21.751 3.50106 21.1201 2.87012C20.4892 2.2392 19.6344 1.88308 18.7422 1.87988H7.43066L8.04199 2.68262L8.20215 2.89258V2.89355L8.20898 2.90137C8.73988 3.56913 9.02941 4.39691 9.03027 5.25V6.75H22.1104V5.24805Z" fill="#383641" stroke="white"/>
</svg>
